ISO-10303-21;
HEADER;
FILE_DESCRIPTION(('FreeCAD Model'),'2;1');
FILE_NAME('Open CASCADE Shape Model','2026-09-28T20:51:33',('Author'),(
    ''),'Open CASCADE STEP processor 7.8','FreeCAD','Unknown');
FILE_SCHEMA(('AUTOMOTIVE_DESIGN { 1 0 10303 214 1 1 1 1 }'));
ENDSEC;
DATA;
#1 = APPLICATION_PROTOCOL_DEFINITION('international standard',
  'automotive_design',2000,#2);
#2 = APPLICATION_CONTEXT(
  'core data for automotive mechanical design processes');
#3 = SHAPE_DEFINITION_REPRESENTATION(#4,#10);
#4 = PRODUCT_DEFINITION_SHAPE('','',#5);
#5 = PRODUCT_DEFINITION('design','',#6,#9);
#6 = PRODUCT_DEFINITION_FORMATION('','',#7);
#7 = PRODUCT('Assembly','Assembly','',(#8));
#8 = PRODUCT_CONTEXT('',#2,'mechanical');
#9 = PRODUCT_DEFINITION_CONTEXT('part definition',#2,'design');
#10 = SHAPE_REPRESENTATION('',(#11,#15),#19);
#11 = AXIS2_PLACEMENT_3D('',#12,#13,#14);
#12 = CARTESIAN_POINT('',(0.,0.,0.));
#13 = DIRECTION('',(0.,0.,1.));
#14 = DIRECTION('',(1.,0.,-0.));
#15 = AXIS2_PLACEMENT_3D('',#16,#17,#18);
#16 = CARTESIAN_POINT('',(3.75,0.,0.));
#17 = DIRECTION('',(0.,1.,-2.22044604925E-16));
#18 = DIRECTION('',(-1.,0.,0.));
#19 = ( GEOMETRIC_REPRESENTATION_CONTEXT(3) 
GLOBAL_UNCERTAINTY_ASSIGNED_CONTEXT((#23)) GLOBAL_UNIT_ASSIGNED_CONTEXT(
(#20,#21,#22)) REPRESENTATION_CONTEXT('Context #1',
  '3D Context with UNIT and UNCERTAINTY') );
#20 = ( LENGTH_UNIT() NAMED_UNIT(*) SI_UNIT(.MILLI.,.METRE.) );
#21 = ( NAMED_UNIT(*) PLANE_ANGLE_UNIT() SI_UNIT($,.RADIAN.) );
#22 = ( NAMED_UNIT(*) SI_UNIT($,.STERADIAN.) SOLID_ANGLE_UNIT() );
#23 = UNCERTAINTY_MEASURE_WITH_UNIT(LENGTH_MEASURE(1.E-07),#20,
  'distance_accuracy_value','confusion accuracy');
#24 = PRODUCT_RELATED_PRODUCT_CATEGORY('part',$,(#7));
#25 = SHAPE_DEFINITION_REPRESENTATION(#26,#32);
#26 = PRODUCT_DEFINITION_SHAPE('','',#27);
#27 = PRODUCT_DEFINITION('design','',#28,#31);
#28 = PRODUCT_DEFINITION_FORMATION('','',#29);
#29 = PRODUCT('ESK227M160AM2AA004','ESK227M160AM2AA004','',(#30));
#30 = PRODUCT_CONTEXT('',#2,'mechanical');
#31 = PRODUCT_DEFINITION_CONTEXT('part definition',#2,'design');
#32 = SHAPE_REPRESENTATION('',(#11,#33,#37,#41,#45),#49);
#33 = AXIS2_PLACEMENT_3D('',#34,#35,#36);
#34 = CARTESIAN_POINT('',(0.,0.,0.));
#35 = DIRECTION('',(0.,0.,1.));
#36 = DIRECTION('',(1.,0.,0.));
#37 = AXIS2_PLACEMENT_3D('',#38,#39,#40);
#38 = CARTESIAN_POINT('',(0.,0.,0.));
#39 = DIRECTION('',(0.,0.,1.));
#40 = DIRECTION('',(1.,0.,0.));
#41 = AXIS2_PLACEMENT_3D('',#42,#43,#44);
#42 = CARTESIAN_POINT('',(0.,0.,0.));
#43 = DIRECTION('',(0.,0.,1.));
#44 = DIRECTION('',(1.,0.,0.));
#45 = AXIS2_PLACEMENT_3D('',#46,#47,#48);
#46 = CARTESIAN_POINT('',(0.,0.,0.));
#47 = DIRECTION('',(0.,0.,1.));
#48 = DIRECTION('',(1.,0.,0.));
#49 = ( GEOMETRIC_REPRESENTATION_CONTEXT(3) 
GLOBAL_UNCERTAINTY_ASSIGNED_CONTEXT((#53)) GLOBAL_UNIT_ASSIGNED_CONTEXT(
(#50,#51,#52)) REPRESENTATION_CONTEXT('Context #1',
  '3D Context with UNIT and UNCERTAINTY') );
#50 = ( LENGTH_UNIT() NAMED_UNIT(*) SI_UNIT(.MILLI.,.METRE.) );
#51 = ( NAMED_UNIT(*) PLANE_ANGLE_UNIT() SI_UNIT($,.RADIAN.) );
#52 = ( NAMED_UNIT(*) SI_UNIT($,.STERADIAN.) SOLID_ANGLE_UNIT() );
#53 = UNCERTAINTY_MEASURE_WITH_UNIT(LENGTH_MEASURE(1.E-07),#50,
  'distance_accuracy_value','confusion accuracy');
#54 = CONTEXT_DEPENDENT_SHAPE_REPRESENTATION(#55,#57);
#55 = ( REPRESENTATION_RELATIONSHIP('','',#32,#10) 
REPRESENTATION_RELATIONSHIP_WITH_TRANSFORMATION(#56) 
SHAPE_REPRESENTATION_RELATIONSHIP() );
#56 = ITEM_DEFINED_TRANSFORMATION('','',#11,#15);
#57 = PRODUCT_DEFINITION_SHAPE('Placement','Placement of an item',#58);
#58 = NEXT_ASSEMBLY_USAGE_OCCURRENCE('5','ESK227M160AM2AA005','',#5,#27,
  $);
#59 = PRODUCT_RELATED_PRODUCT_CATEGORY('part',$,(#29));
#60 = SHAPE_DEFINITION_REPRESENTATION(#61,#67);
#61 = PRODUCT_DEFINITION_SHAPE('','',#62);
#62 = PRODUCT_DEFINITION('design','',#63,#66);
#63 = PRODUCT_DEFINITION_FORMATION('','',#64);
#64 = PRODUCT('ESK227M160AM2AA','ESK227M160AM2AA','',(#65));
#65 = PRODUCT_CONTEXT('',#2,'mechanical');
#66 = PRODUCT_DEFINITION_CONTEXT('part definition',#2,'design');
#67 = ADVANCED_BREP_SHAPE_REPRESENTATION('',(#11,#68),#1212);
#68 = MANIFOLD_SOLID_BREP('',#69);
#69 = CLOSED_SHELL('',(#70,#114,#148,#182,#224,#257,#299,#332,#376,#410,
    #442,#467,#491,#509,#543,#569,#603,#637,#669,#694,#728,#754,#796,
    #822,#847,#865,#883,#909,#934,#960,#994,#1019,#1037,#1063,#1080,
    #1112,#1144,#1166,#1189));
#70 = ADVANCED_FACE('',(#71),#109,.F.);
#71 = FACE_BOUND('',#72,.F.);
#72 = EDGE_LOOP('',(#73,#84,#93,#102));
#73 = ORIENTED_EDGE('',*,*,#74,.T.);
#74 = EDGE_CURVE('',#75,#77,#79,.T.);
#75 = VERTEX_POINT('',#76);
#76 = CARTESIAN_POINT('',(-7.289736694582,3.556456047566,-2.653247172466
    ));
#77 = VERTEX_POINT('',#78);
#78 = CARTESIAN_POINT('',(0.,3.556456047566,-7.757575757576));
#79 = CIRCLE('',#80,7.757575757576);
#80 = AXIS2_PLACEMENT_3D('',#81,#82,#83);
#81 = CARTESIAN_POINT('',(0.,3.556456047566,0.));
#82 = DIRECTION('',(0.,-1.,-0.));
#83 = DIRECTION('',(0.,0.,-1.));
#84 = ORIENTED_EDGE('',*,*,#85,.T.);
#85 = EDGE_CURVE('',#77,#86,#88,.T.);
#86 = VERTEX_POINT('',#87);
#87 = CARTESIAN_POINT('',(0.,4.25,-7.5));
#88 = CIRCLE('',#89,1.0625);
#89 = AXIS2_PLACEMENT_3D('',#90,#91,#92);
#90 = CARTESIAN_POINT('',(0.,4.25,-8.5625));
#91 = DIRECTION('',(-1.,0.,0.));
#92 = DIRECTION('',(0.,0.,1.));
#93 = ORIENTED_EDGE('',*,*,#94,.F.);
#94 = EDGE_CURVE('',#95,#86,#97,.T.);
#95 = VERTEX_POINT('',#96);
#96 = CARTESIAN_POINT('',(-7.047694655894,4.25,-2.565151074943));
#97 = CIRCLE('',#98,7.5);
#98 = AXIS2_PLACEMENT_3D('',#99,#100,#101);
#99 = CARTESIAN_POINT('',(0.,4.25,0.));
#100 = DIRECTION('',(0.,-1.,-0.));
#101 = DIRECTION('',(0.,0.,-1.));
#102 = ORIENTED_EDGE('',*,*,#103,.T.);
#103 = EDGE_CURVE('',#95,#75,#104,.T.);
#104 = CIRCLE('',#105,1.0625);
#105 = AXIS2_PLACEMENT_3D('',#106,#107,#108);
#106 = CARTESIAN_POINT('',(-8.046118065479,4.25,-2.928547477226));
#107 = DIRECTION('',(0.342020143326,0.,-0.939692620786));
#108 = DIRECTION('',(0.939692620786,0.,0.342020143326));
#109 = TOROIDAL_SURFACE('',#110,8.5625,1.0625);
#110 = AXIS2_PLACEMENT_3D('',#111,#112,#113);
#111 = CARTESIAN_POINT('',(0.,4.25,0.));
#112 = DIRECTION('',(-0.,-1.,-0.));
#113 = DIRECTION('',(0.,0.,-1.));
#114 = ADVANCED_FACE('',(#115),#143,.F.);
#115 = FACE_BOUND('',#116,.F.);
#116 = EDGE_LOOP('',(#117,#126,#135,#142));
#117 = ORIENTED_EDGE('',*,*,#118,.T.);
#118 = EDGE_CURVE('',#77,#119,#121,.T.);
#119 = VERTEX_POINT('',#120);
#120 = CARTESIAN_POINT('',(9.500290320658E-16,3.556456047566,
    7.757575757576));
#121 = CIRCLE('',#122,7.757575757576);
#122 = AXIS2_PLACEMENT_3D('',#123,#124,#125);
#123 = CARTESIAN_POINT('',(0.,3.556456047566,0.));
#124 = DIRECTION('',(0.,-1.,-0.));
#125 = DIRECTION('',(0.,0.,-1.));
#126 = ORIENTED_EDGE('',*,*,#127,.T.);
#127 = EDGE_CURVE('',#119,#128,#130,.T.);
#128 = VERTEX_POINT('',#129);
#129 = CARTESIAN_POINT('',(9.184850993605E-16,4.25,7.5));
#130 = CIRCLE('',#131,1.0625);
#131 = AXIS2_PLACEMENT_3D('',#132,#133,#134);
#132 = CARTESIAN_POINT('',(1.04860382177E-15,4.25,8.5625));
#133 = DIRECTION('',(1.,0.,-1.224646799147E-16));
#134 = DIRECTION('',(-1.224646799147E-16,0.,-1.));
#135 = ORIENTED_EDGE('',*,*,#136,.F.);
#136 = EDGE_CURVE('',#86,#128,#137,.T.);
#137 = CIRCLE('',#138,7.5);
#138 = AXIS2_PLACEMENT_3D('',#139,#140,#141);
#139 = CARTESIAN_POINT('',(0.,4.25,0.));
#140 = DIRECTION('',(0.,-1.,-0.));
#141 = DIRECTION('',(0.,0.,-1.));
#142 = ORIENTED_EDGE('',*,*,#85,.F.);
#143 = TOROIDAL_SURFACE('',#144,8.5625,1.0625);
#144 = AXIS2_PLACEMENT_3D('',#145,#146,#147);
#145 = CARTESIAN_POINT('',(0.,4.25,0.));
#146 = DIRECTION('',(-0.,-1.,-0.));
#147 = DIRECTION('',(0.,0.,-1.));
#148 = ADVANCED_FACE('',(#149),#177,.F.);
#149 = FACE_BOUND('',#150,.F.);
#150 = EDGE_LOOP('',(#151,#160,#169,#176));
#151 = ORIENTED_EDGE('',*,*,#152,.T.);
#152 = EDGE_CURVE('',#119,#153,#155,.T.);
#153 = VERTEX_POINT('',#154);
#154 = CARTESIAN_POINT('',(-7.289736694582,3.556456047566,2.653247172466
    ));
#155 = CIRCLE('',#156,7.757575757576);
#156 = AXIS2_PLACEMENT_3D('',#157,#158,#159);
#157 = CARTESIAN_POINT('',(0.,3.556456047566,0.));
#158 = DIRECTION('',(0.,-1.,-0.));
#159 = DIRECTION('',(0.,0.,-1.));
#160 = ORIENTED_EDGE('',*,*,#161,.F.);
#161 = EDGE_CURVE('',#162,#153,#164,.T.);
#162 = VERTEX_POINT('',#163);
#163 = CARTESIAN_POINT('',(-7.047694655894,4.25,2.565151074943));
#164 = CIRCLE('',#165,1.0625);
#165 = AXIS2_PLACEMENT_3D('',#166,#167,#168);
#166 = CARTESIAN_POINT('',(-8.046118065479,4.25,2.928547477226));
#167 = DIRECTION('',(-0.342020143326,0.,-0.939692620786));
#168 = DIRECTION('',(0.939692620786,0.,-0.342020143326));
#169 = ORIENTED_EDGE('',*,*,#170,.F.);
#170 = EDGE_CURVE('',#128,#162,#171,.T.);
#171 = CIRCLE('',#172,7.5);
#172 = AXIS2_PLACEMENT_3D('',#173,#174,#175);
#173 = CARTESIAN_POINT('',(0.,4.25,0.));
#174 = DIRECTION('',(0.,-1.,-0.));
#175 = DIRECTION('',(0.,0.,-1.));
#176 = ORIENTED_EDGE('',*,*,#127,.F.);
#177 = TOROIDAL_SURFACE('',#178,8.5625,1.0625);
#178 = AXIS2_PLACEMENT_3D('',#179,#180,#181);
#179 = CARTESIAN_POINT('',(0.,4.25,0.));
#180 = DIRECTION('',(-0.,-1.,-0.));
#181 = DIRECTION('',(0.,0.,-1.));
#182 = ADVANCED_FACE('',(#183),#219,.F.);
#183 = FACE_BOUND('',#184,.F.);
#184 = EDGE_LOOP('',(#185,#195,#204,#212));
#185 = ORIENTED_EDGE('',*,*,#186,.F.);
#186 = EDGE_CURVE('',#187,#189,#191,.T.);
#187 = VERTEX_POINT('',#188);
#188 = CARTESIAN_POINT('',(-4.69846310393,33.9,1.710100716628));
#189 = VERTEX_POINT('',#190);
#190 = CARTESIAN_POINT('',(-4.69846310393,34.,1.710100716628));
#191 = LINE('',#192,#193);
#192 = CARTESIAN_POINT('',(-4.69846310393,0.1,1.710100716628));
#193 = VECTOR('',#194,1.);
#194 = DIRECTION('',(0.,1.,0.));
#195 = ORIENTED_EDGE('',*,*,#196,.F.);
#196 = EDGE_CURVE('',#197,#187,#199,.T.);
#197 = VERTEX_POINT('',#198);
#198 = CARTESIAN_POINT('',(6.123233995737E-16,33.9,5.));
#199 = CIRCLE('',#200,5.);
#200 = AXIS2_PLACEMENT_3D('',#201,#202,#203);
#201 = CARTESIAN_POINT('',(0.,33.9,0.));
#202 = DIRECTION('',(0.,-1.,-0.));
#203 = DIRECTION('',(0.,0.,-1.));
#204 = ORIENTED_EDGE('',*,*,#205,.F.);
#205 = EDGE_CURVE('',#206,#197,#208,.T.);
#206 = VERTEX_POINT('',#207);
#207 = CARTESIAN_POINT('',(6.123233995737E-16,34.,5.));
#208 = LINE('',#209,#210);
#209 = CARTESIAN_POINT('',(6.123233995737E-16,0.1,5.));
#210 = VECTOR('',#211,1.);
#211 = DIRECTION('',(-0.,-1.,-0.));
#212 = ORIENTED_EDGE('',*,*,#213,.T.);
#213 = EDGE_CURVE('',#206,#189,#214,.T.);
#214 = CIRCLE('',#215,5.);
#215 = AXIS2_PLACEMENT_3D('',#216,#217,#218);
#216 = CARTESIAN_POINT('',(0.,34.,0.));
#217 = DIRECTION('',(0.,-1.,-0.));
#218 = DIRECTION('',(0.,0.,-1.));
#219 = CYLINDRICAL_SURFACE('',#220,5.);
#220 = AXIS2_PLACEMENT_3D('',#221,#222,#223);
#221 = CARTESIAN_POINT('',(0.,0.1,0.));
#222 = DIRECTION('',(-0.,-1.,-0.));
#223 = DIRECTION('',(0.,0.,-1.));
#224 = ADVANCED_FACE('',(#225),#252,.F.);
#225 = FACE_BOUND('',#226,.F.);
#226 = EDGE_LOOP('',(#227,#236,#244,#251));
#227 = ORIENTED_EDGE('',*,*,#228,.F.);
#228 = EDGE_CURVE('',#229,#197,#231,.T.);
#229 = VERTEX_POINT('',#230);
#230 = CARTESIAN_POINT('',(0.,33.9,-5.));
#231 = CIRCLE('',#232,5.);
#232 = AXIS2_PLACEMENT_3D('',#233,#234,#235);
#233 = CARTESIAN_POINT('',(0.,33.9,0.));
#234 = DIRECTION('',(0.,-1.,-0.));
#235 = DIRECTION('',(0.,0.,-1.));
#236 = ORIENTED_EDGE('',*,*,#237,.F.);
#237 = EDGE_CURVE('',#238,#229,#240,.T.);
#238 = VERTEX_POINT('',#239);
#239 = CARTESIAN_POINT('',(0.,34.,-5.));
#240 = LINE('',#241,#242);
#241 = CARTESIAN_POINT('',(0.,0.1,-5.));
#242 = VECTOR('',#243,1.);
#243 = DIRECTION('',(-0.,-1.,-0.));
#244 = ORIENTED_EDGE('',*,*,#245,.T.);
#245 = EDGE_CURVE('',#238,#206,#246,.T.);
#246 = CIRCLE('',#247,5.);
#247 = AXIS2_PLACEMENT_3D('',#248,#249,#250);
#248 = CARTESIAN_POINT('',(0.,34.,0.));
#249 = DIRECTION('',(0.,-1.,-0.));
#250 = DIRECTION('',(0.,0.,-1.));
#251 = ORIENTED_EDGE('',*,*,#205,.T.);
#252 = CYLINDRICAL_SURFACE('',#253,5.);
#253 = AXIS2_PLACEMENT_3D('',#254,#255,#256);
#254 = CARTESIAN_POINT('',(0.,0.1,0.));
#255 = DIRECTION('',(-0.,-1.,-0.));
#256 = DIRECTION('',(0.,0.,-1.));
#257 = ADVANCED_FACE('',(#258),#294,.F.);
#258 = FACE_BOUND('',#259,.F.);
#259 = EDGE_LOOP('',(#260,#270,#279,#287));
#260 = ORIENTED_EDGE('',*,*,#261,.F.);
#261 = EDGE_CURVE('',#262,#264,#266,.T.);
#262 = VERTEX_POINT('',#263);
#263 = CARTESIAN_POINT('',(-5.814348091113,0.,2.116249636828));
#264 = VERTEX_POINT('',#265);
#265 = CARTESIAN_POINT('',(-5.814348091113,0.1,2.116249636828));
#266 = LINE('',#267,#268);
#267 = CARTESIAN_POINT('',(-5.814348091113,0.,2.116249636828));
#268 = VECTOR('',#269,1.);
#269 = DIRECTION('',(0.,1.,0.));
#270 = ORIENTED_EDGE('',*,*,#271,.F.);
#271 = EDGE_CURVE('',#272,#262,#274,.T.);
#272 = VERTEX_POINT('',#273);
#273 = CARTESIAN_POINT('',(7.577502069724E-16,0.,6.1875));
#274 = CIRCLE('',#275,6.1875);
#275 = AXIS2_PLACEMENT_3D('',#276,#277,#278);
#276 = CARTESIAN_POINT('',(0.,0.,0.));
#277 = DIRECTION('',(0.,-1.,-0.));
#278 = DIRECTION('',(0.,0.,-1.));
#279 = ORIENTED_EDGE('',*,*,#280,.F.);
#280 = EDGE_CURVE('',#281,#272,#283,.T.);
#281 = VERTEX_POINT('',#282);
#282 = CARTESIAN_POINT('',(7.577502069724E-16,0.1,6.1875));
#283 = LINE('',#284,#285);
#284 = CARTESIAN_POINT('',(7.577502069724E-16,0.1,6.1875));
#285 = VECTOR('',#286,1.);
#286 = DIRECTION('',(-0.,-1.,-0.));
#287 = ORIENTED_EDGE('',*,*,#288,.T.);
#288 = EDGE_CURVE('',#281,#264,#289,.T.);
#289 = CIRCLE('',#290,6.1875);
#290 = AXIS2_PLACEMENT_3D('',#291,#292,#293);
#291 = CARTESIAN_POINT('',(0.,0.1,0.));
#292 = DIRECTION('',(0.,-1.,-0.));
#293 = DIRECTION('',(0.,0.,-1.));
#294 = CYLINDRICAL_SURFACE('',#295,6.1875);
#295 = AXIS2_PLACEMENT_3D('',#296,#297,#298);
#296 = CARTESIAN_POINT('',(0.,0.1,0.));
#297 = DIRECTION('',(-0.,-1.,-0.));
#298 = DIRECTION('',(0.,0.,-1.));
#299 = ADVANCED_FACE('',(#300),#327,.F.);
#300 = FACE_BOUND('',#301,.F.);
#301 = EDGE_LOOP('',(#302,#311,#319,#326));
#302 = ORIENTED_EDGE('',*,*,#303,.F.);
#303 = EDGE_CURVE('',#304,#272,#306,.T.);
#304 = VERTEX_POINT('',#305);
#305 = CARTESIAN_POINT('',(0.,0.,-6.1875));
#306 = CIRCLE('',#307,6.1875);
#307 = AXIS2_PLACEMENT_3D('',#308,#309,#310);
#308 = CARTESIAN_POINT('',(0.,0.,0.));
#309 = DIRECTION('',(0.,-1.,-0.));
#310 = DIRECTION('',(0.,0.,-1.));
#311 = ORIENTED_EDGE('',*,*,#312,.F.);
#312 = EDGE_CURVE('',#313,#304,#315,.T.);
#313 = VERTEX_POINT('',#314);
#314 = CARTESIAN_POINT('',(0.,0.1,-6.1875));
#315 = LINE('',#316,#317);
#316 = CARTESIAN_POINT('',(0.,0.1,-6.1875));
#317 = VECTOR('',#318,1.);
#318 = DIRECTION('',(-0.,-1.,-0.));
#319 = ORIENTED_EDGE('',*,*,#320,.T.);
#320 = EDGE_CURVE('',#313,#281,#321,.T.);
#321 = CIRCLE('',#322,6.1875);
#322 = AXIS2_PLACEMENT_3D('',#323,#324,#325);
#323 = CARTESIAN_POINT('',(0.,0.1,0.));
#324 = DIRECTION('',(0.,-1.,-0.));
#325 = DIRECTION('',(0.,0.,-1.));
#326 = ORIENTED_EDGE('',*,*,#280,.T.);
#327 = CYLINDRICAL_SURFACE('',#328,6.1875);
#328 = AXIS2_PLACEMENT_3D('',#329,#330,#331);
#329 = CARTESIAN_POINT('',(0.,0.1,0.));
#330 = DIRECTION('',(-0.,-1.,-0.));
#331 = DIRECTION('',(0.,0.,-1.));
#332 = ADVANCED_FACE('',(#333),#371,.T.);
#333 = FACE_BOUND('',#334,.T.);
#334 = EDGE_LOOP('',(#335,#346,#355,#364));
#335 = ORIENTED_EDGE('',*,*,#336,.T.);
#336 = EDGE_CURVE('',#337,#339,#341,.T.);
#337 = VERTEX_POINT('',#338);
#338 = CARTESIAN_POINT('',(0.,1.,-8.));
#339 = VERTEX_POINT('',#340);
#340 = CARTESIAN_POINT('',(9.797174393179E-16,1.,8.));
#341 = CIRCLE('',#342,8.);
#342 = AXIS2_PLACEMENT_3D('',#343,#344,#345);
#343 = CARTESIAN_POINT('',(0.,1.,0.));
#344 = DIRECTION('',(0.,-1.,-0.));
#345 = DIRECTION('',(0.,0.,-1.));
#346 = ORIENTED_EDGE('',*,*,#347,.T.);
#347 = EDGE_CURVE('',#339,#348,#350,.T.);
#348 = VERTEX_POINT('',#349);
#349 = CARTESIAN_POINT('',(9.184850993605E-16,6.505213034913E-16,7.));
#350 = CIRCLE('',#351,1.);
#351 = AXIS2_PLACEMENT_3D('',#352,#353,#354);
#352 = CARTESIAN_POINT('',(8.572527594031E-16,1.,7.));
#353 = DIRECTION('',(1.,0.,-1.224646799147E-16));
#354 = DIRECTION('',(-1.224646799147E-16,0.,-1.));
#355 = ORIENTED_EDGE('',*,*,#356,.F.);
#356 = EDGE_CURVE('',#357,#348,#359,.T.);
#357 = VERTEX_POINT('',#358);
#358 = CARTESIAN_POINT('',(0.,6.505213034913E-16,-7.));
#359 = CIRCLE('',#360,7.);
#360 = AXIS2_PLACEMENT_3D('',#361,#362,#363);
#361 = CARTESIAN_POINT('',(0.,6.505213034913E-16,0.));
#362 = DIRECTION('',(0.,-1.,-0.));
#363 = DIRECTION('',(0.,0.,-1.));
#364 = ORIENTED_EDGE('',*,*,#365,.F.);
#365 = EDGE_CURVE('',#337,#357,#366,.T.);
#366 = CIRCLE('',#367,1.);
#367 = AXIS2_PLACEMENT_3D('',#368,#369,#370);
#368 = CARTESIAN_POINT('',(0.,1.,-7.));
#369 = DIRECTION('',(-1.,0.,0.));
#370 = DIRECTION('',(0.,0.,1.));
#371 = TOROIDAL_SURFACE('',#372,7.,1.);
#372 = AXIS2_PLACEMENT_3D('',#373,#374,#375);
#373 = CARTESIAN_POINT('',(0.,1.,0.));
#374 = DIRECTION('',(-0.,-1.,-0.));
#375 = DIRECTION('',(0.,0.,-1.));
#376 = ADVANCED_FACE('',(#377),#405,.T.);
#377 = FACE_BOUND('',#378,.T.);
#378 = EDGE_LOOP('',(#379,#388,#389,#398));
#379 = ORIENTED_EDGE('',*,*,#380,.T.);
#380 = EDGE_CURVE('',#381,#337,#383,.T.);
#381 = VERTEX_POINT('',#382);
#382 = CARTESIAN_POINT('',(-7.517540966287,1.,-2.736161146605));
#383 = CIRCLE('',#384,8.);
#384 = AXIS2_PLACEMENT_3D('',#385,#386,#387);
#385 = CARTESIAN_POINT('',(0.,1.,0.));
#386 = DIRECTION('',(0.,-1.,-0.));
#387 = DIRECTION('',(0.,0.,-1.));
#388 = ORIENTED_EDGE('',*,*,#365,.T.);
#389 = ORIENTED_EDGE('',*,*,#390,.F.);
#390 = EDGE_CURVE('',#391,#357,#393,.T.);
#391 = VERTEX_POINT('',#392);
#392 = CARTESIAN_POINT('',(-6.577848345501,1.084202172486E-15,
    -2.39414100328));
#393 = CIRCLE('',#394,7.);
#394 = AXIS2_PLACEMENT_3D('',#395,#396,#397);
#395 = CARTESIAN_POINT('',(0.,6.505213034913E-16,0.));
#396 = DIRECTION('',(0.,-1.,-0.));
#397 = DIRECTION('',(0.,0.,-1.));
#398 = ORIENTED_EDGE('',*,*,#399,.F.);
#399 = EDGE_CURVE('',#381,#391,#400,.T.);
#400 = CIRCLE('',#401,1.);
#401 = AXIS2_PLACEMENT_3D('',#402,#403,#404);
#402 = CARTESIAN_POINT('',(-6.577848345501,1.,-2.39414100328));
#403 = DIRECTION('',(-0.342020143326,0.,0.939692620786));
#404 = DIRECTION('',(0.939692620786,0.,0.342020143326));
#405 = TOROIDAL_SURFACE('',#406,7.,1.);
#406 = AXIS2_PLACEMENT_3D('',#407,#408,#409);
#407 = CARTESIAN_POINT('',(0.,1.,0.));
#408 = DIRECTION('',(-0.,-1.,-0.));
#409 = DIRECTION('',(0.,0.,-1.));
#410 = ADVANCED_FACE('',(#411),#437,.T.);
#411 = FACE_BOUND('',#412,.T.);
#412 = EDGE_LOOP('',(#413,#424,#430,#431));
#413 = ORIENTED_EDGE('',*,*,#414,.T.);
#414 = EDGE_CURVE('',#415,#417,#419,.T.);
#415 = VERTEX_POINT('',#416);
#416 = CARTESIAN_POINT('',(0.,2.903708798216,-8.));
#417 = VERTEX_POINT('',#418);
#418 = CARTESIAN_POINT('',(9.797174393179E-16,2.903708798216,8.));
#419 = CIRCLE('',#420,8.);
#420 = AXIS2_PLACEMENT_3D('',#421,#422,#423);
#421 = CARTESIAN_POINT('',(0.,2.903708798216,0.));
#422 = DIRECTION('',(0.,-1.,-0.));
#423 = DIRECTION('',(0.,0.,-1.));
#424 = ORIENTED_EDGE('',*,*,#425,.T.);
#425 = EDGE_CURVE('',#417,#339,#426,.T.);
#426 = LINE('',#427,#428);
#427 = CARTESIAN_POINT('',(9.797174393179E-16,0.1,8.));
#428 = VECTOR('',#429,1.);
#429 = DIRECTION('',(-0.,-1.,-0.));
#430 = ORIENTED_EDGE('',*,*,#336,.F.);
#431 = ORIENTED_EDGE('',*,*,#432,.F.);
#432 = EDGE_CURVE('',#415,#337,#433,.T.);
#433 = LINE('',#434,#435);
#434 = CARTESIAN_POINT('',(0.,0.1,-8.));
#435 = VECTOR('',#436,1.);
#436 = DIRECTION('',(-0.,-1.,-0.));
#437 = CYLINDRICAL_SURFACE('',#438,8.);
#438 = AXIS2_PLACEMENT_3D('',#439,#440,#441);
#439 = CARTESIAN_POINT('',(0.,0.1,0.));
#440 = DIRECTION('',(-0.,-1.,-0.));
#441 = DIRECTION('',(0.,0.,-1.));
#442 = ADVANCED_FACE('',(#443),#462,.T.);
#443 = FACE_BOUND('',#444,.T.);
#444 = EDGE_LOOP('',(#445,#454,#455,#456));
#445 = ORIENTED_EDGE('',*,*,#446,.T.);
#446 = EDGE_CURVE('',#447,#415,#449,.T.);
#447 = VERTEX_POINT('',#448);
#448 = CARTESIAN_POINT('',(-7.517540966287,2.903708798216,
    -2.736161146605));
#449 = CIRCLE('',#450,8.);
#450 = AXIS2_PLACEMENT_3D('',#451,#452,#453);
#451 = CARTESIAN_POINT('',(0.,2.903708798216,0.));
#452 = DIRECTION('',(0.,-1.,-0.));
#453 = DIRECTION('',(0.,0.,-1.));
#454 = ORIENTED_EDGE('',*,*,#432,.T.);
#455 = ORIENTED_EDGE('',*,*,#380,.F.);
#456 = ORIENTED_EDGE('',*,*,#457,.F.);
#457 = EDGE_CURVE('',#447,#381,#458,.T.);
#458 = LINE('',#459,#460);
#459 = CARTESIAN_POINT('',(-7.517540966287,2.903708798216,
    -2.736161146605));
#460 = VECTOR('',#461,1.);
#461 = DIRECTION('',(0.,-1.,0.));
#462 = CYLINDRICAL_SURFACE('',#463,8.);
#463 = AXIS2_PLACEMENT_3D('',#464,#465,#466);
#464 = CARTESIAN_POINT('',(0.,0.1,0.));
#465 = DIRECTION('',(-0.,-1.,-0.));
#466 = DIRECTION('',(0.,0.,-1.));
#467 = ADVANCED_FACE('',(#468),#486,.T.);
#468 = FACE_BOUND('',#469,.T.);
#469 = EDGE_LOOP('',(#470,#471,#478,#479));
#470 = ORIENTED_EDGE('',*,*,#118,.T.);
#471 = ORIENTED_EDGE('',*,*,#472,.T.);
#472 = EDGE_CURVE('',#119,#417,#473,.T.);
#473 = CIRCLE('',#474,1.);
#474 = AXIS2_PLACEMENT_3D('',#475,#476,#477);
#475 = CARTESIAN_POINT('',(8.572527594031E-16,2.903708798216,7.));
#476 = DIRECTION('',(1.,0.,-1.224646799147E-16));
#477 = DIRECTION('',(-1.224646799147E-16,0.,-1.));
#478 = ORIENTED_EDGE('',*,*,#414,.F.);
#479 = ORIENTED_EDGE('',*,*,#480,.F.);
#480 = EDGE_CURVE('',#77,#415,#481,.T.);
#481 = CIRCLE('',#482,1.);
#482 = AXIS2_PLACEMENT_3D('',#483,#484,#485);
#483 = CARTESIAN_POINT('',(0.,2.903708798216,-7.));
#484 = DIRECTION('',(-1.,0.,0.));
#485 = DIRECTION('',(0.,0.,1.));
#486 = TOROIDAL_SURFACE('',#487,7.,1.);
#487 = AXIS2_PLACEMENT_3D('',#488,#489,#490);
#488 = CARTESIAN_POINT('',(0.,2.903708798216,0.));
#489 = DIRECTION('',(-0.,-1.,-0.));
#490 = DIRECTION('',(0.,0.,-1.));
#491 = ADVANCED_FACE('',(#492),#504,.T.);
#492 = FACE_BOUND('',#493,.T.);
#493 = EDGE_LOOP('',(#494,#495,#496,#497));
#494 = ORIENTED_EDGE('',*,*,#74,.T.);
#495 = ORIENTED_EDGE('',*,*,#480,.T.);
#496 = ORIENTED_EDGE('',*,*,#446,.F.);
#497 = ORIENTED_EDGE('',*,*,#498,.F.);
#498 = EDGE_CURVE('',#75,#447,#499,.T.);
#499 = CIRCLE('',#500,1.);
#500 = AXIS2_PLACEMENT_3D('',#501,#502,#503);
#501 = CARTESIAN_POINT('',(-6.577848345501,2.903708798216,-2.39414100328
    ));
#502 = DIRECTION('',(-0.342020143326,0.,0.939692620786));
#503 = DIRECTION('',(0.939692620786,0.,0.342020143326));
#504 = TOROIDAL_SURFACE('',#505,7.,1.);
#505 = AXIS2_PLACEMENT_3D('',#506,#507,#508);
#506 = CARTESIAN_POINT('',(0.,2.903708798216,0.));
#507 = DIRECTION('',(-0.,-1.,-0.));
#508 = DIRECTION('',(0.,0.,-1.));
#509 = ADVANCED_FACE('',(#510),#538,.F.);
#510 = FACE_BOUND('',#511,.F.);
#511 = EDGE_LOOP('',(#512,#521,#530,#537));
#512 = ORIENTED_EDGE('',*,*,#513,.F.);
#513 = EDGE_CURVE('',#514,#162,#516,.T.);
#514 = VERTEX_POINT('',#515);
#515 = CARTESIAN_POINT('',(-7.289736694582,4.943543952434,2.653247172466
    ));
#516 = CIRCLE('',#517,1.0625);
#517 = AXIS2_PLACEMENT_3D('',#518,#519,#520);
#518 = CARTESIAN_POINT('',(-8.046118065479,4.25,2.928547477226));
#519 = DIRECTION('',(-0.342020143326,0.,-0.939692620786));
#520 = DIRECTION('',(0.939692620786,0.,-0.342020143326));
#521 = ORIENTED_EDGE('',*,*,#522,.F.);
#522 = EDGE_CURVE('',#523,#514,#525,.T.);
#523 = VERTEX_POINT('',#524);
#524 = CARTESIAN_POINT('',(9.648732356919E-16,4.943543952434,
    7.757575757576));
#525 = CIRCLE('',#526,7.757575757576);
#526 = AXIS2_PLACEMENT_3D('',#527,#528,#529);
#527 = CARTESIAN_POINT('',(0.,4.943543952434,0.));
#528 = DIRECTION('',(0.,-1.,-0.));
#529 = DIRECTION('',(0.,0.,-1.));
#530 = ORIENTED_EDGE('',*,*,#531,.F.);
#531 = EDGE_CURVE('',#128,#523,#532,.T.);
#532 = CIRCLE('',#533,1.0625);
#533 = AXIS2_PLACEMENT_3D('',#534,#535,#536);
#534 = CARTESIAN_POINT('',(1.04860382177E-15,4.25,8.5625));
#535 = DIRECTION('',(1.,0.,-1.224646799147E-16));
#536 = DIRECTION('',(-1.224646799147E-16,0.,-1.));
#537 = ORIENTED_EDGE('',*,*,#170,.T.);
#538 = TOROIDAL_SURFACE('',#539,8.5625,1.0625);
#539 = AXIS2_PLACEMENT_3D('',#540,#541,#542);
#540 = CARTESIAN_POINT('',(0.,4.25,0.));
#541 = DIRECTION('',(-0.,-1.,-0.));
#542 = DIRECTION('',(0.,0.,-1.));
#543 = ADVANCED_FACE('',(#544),#564,.F.);
#544 = FACE_BOUND('',#545,.F.);
#545 = EDGE_LOOP('',(#546,#547,#556,#563));
#546 = ORIENTED_EDGE('',*,*,#531,.T.);
#547 = ORIENTED_EDGE('',*,*,#548,.F.);
#548 = EDGE_CURVE('',#549,#523,#551,.T.);
#549 = VERTEX_POINT('',#550);
#550 = CARTESIAN_POINT('',(0.,4.943543952434,-7.757575757576));
#551 = CIRCLE('',#552,7.757575757576);
#552 = AXIS2_PLACEMENT_3D('',#553,#554,#555);
#553 = CARTESIAN_POINT('',(0.,4.943543952434,0.));
#554 = DIRECTION('',(0.,-1.,-0.));
#555 = DIRECTION('',(0.,0.,-1.));
#556 = ORIENTED_EDGE('',*,*,#557,.F.);
#557 = EDGE_CURVE('',#86,#549,#558,.T.);
#558 = CIRCLE('',#559,1.0625);
#559 = AXIS2_PLACEMENT_3D('',#560,#561,#562);
#560 = CARTESIAN_POINT('',(0.,4.25,-8.5625));
#561 = DIRECTION('',(-1.,0.,0.));
#562 = DIRECTION('',(0.,0.,1.));
#563 = ORIENTED_EDGE('',*,*,#136,.T.);
#564 = TOROIDAL_SURFACE('',#565,8.5625,1.0625);
#565 = AXIS2_PLACEMENT_3D('',#566,#567,#568);
#566 = CARTESIAN_POINT('',(0.,4.25,0.));
#567 = DIRECTION('',(-0.,-1.,-0.));
#568 = DIRECTION('',(0.,0.,-1.));
#569 = ADVANCED_FACE('',(#570),#598,.T.);
#570 = FACE_BOUND('',#571,.T.);
#571 = EDGE_LOOP('',(#572,#583,#590,#591));
#572 = ORIENTED_EDGE('',*,*,#573,.T.);
#573 = EDGE_CURVE('',#574,#576,#578,.T.);
#574 = VERTEX_POINT('',#575);
#575 = CARTESIAN_POINT('',(0.,5.596291201784,-8.));
#576 = VERTEX_POINT('',#577);
#577 = CARTESIAN_POINT('',(9.797174393179E-16,5.596291201784,8.));
#578 = CIRCLE('',#579,8.);
#579 = AXIS2_PLACEMENT_3D('',#580,#581,#582);
#580 = CARTESIAN_POINT('',(0.,5.596291201784,0.));
#581 = DIRECTION('',(0.,-1.,-0.));
#582 = DIRECTION('',(0.,0.,-1.));
#583 = ORIENTED_EDGE('',*,*,#584,.T.);
#584 = EDGE_CURVE('',#576,#523,#585,.T.);
#585 = CIRCLE('',#586,1.);
#586 = AXIS2_PLACEMENT_3D('',#587,#588,#589);
#587 = CARTESIAN_POINT('',(8.572527594031E-16,5.596291201784,7.));
#588 = DIRECTION('',(1.,0.,-1.224646799147E-16));
#589 = DIRECTION('',(-1.224646799147E-16,0.,-1.));
#590 = ORIENTED_EDGE('',*,*,#548,.F.);
#591 = ORIENTED_EDGE('',*,*,#592,.F.);
#592 = EDGE_CURVE('',#574,#549,#593,.T.);
#593 = CIRCLE('',#594,1.);
#594 = AXIS2_PLACEMENT_3D('',#595,#596,#597);
#595 = CARTESIAN_POINT('',(0.,5.596291201784,-7.));
#596 = DIRECTION('',(-1.,0.,0.));
#597 = DIRECTION('',(0.,0.,1.));
#598 = TOROIDAL_SURFACE('',#599,7.,1.);
#599 = AXIS2_PLACEMENT_3D('',#600,#601,#602);
#600 = CARTESIAN_POINT('',(0.,5.596291201784,0.));
#601 = DIRECTION('',(-0.,-1.,-0.));
#602 = DIRECTION('',(0.,0.,-1.));
#603 = ADVANCED_FACE('',(#604),#632,.T.);
#604 = FACE_BOUND('',#605,.T.);
#605 = EDGE_LOOP('',(#606,#615,#616,#625));
#606 = ORIENTED_EDGE('',*,*,#607,.T.);
#607 = EDGE_CURVE('',#608,#574,#610,.T.);
#608 = VERTEX_POINT('',#609);
#609 = CARTESIAN_POINT('',(-7.517540966287,5.596291201784,
    -2.736161146605));
#610 = CIRCLE('',#611,8.);
#611 = AXIS2_PLACEMENT_3D('',#612,#613,#614);
#612 = CARTESIAN_POINT('',(0.,5.596291201784,0.));
#613 = DIRECTION('',(0.,-1.,-0.));
#614 = DIRECTION('',(0.,0.,-1.));
#615 = ORIENTED_EDGE('',*,*,#592,.T.);
#616 = ORIENTED_EDGE('',*,*,#617,.F.);
#617 = EDGE_CURVE('',#618,#549,#620,.T.);
#618 = VERTEX_POINT('',#619);
#619 = CARTESIAN_POINT('',(-7.289736694582,4.943543952434,
    -2.653247172466));
#620 = CIRCLE('',#621,7.757575757576);
#621 = AXIS2_PLACEMENT_3D('',#622,#623,#624);
#622 = CARTESIAN_POINT('',(0.,4.943543952434,0.));
#623 = DIRECTION('',(0.,-1.,-0.));
#624 = DIRECTION('',(0.,0.,-1.));
#625 = ORIENTED_EDGE('',*,*,#626,.F.);
#626 = EDGE_CURVE('',#608,#618,#627,.T.);
#627 = CIRCLE('',#628,1.);
#628 = AXIS2_PLACEMENT_3D('',#629,#630,#631);
#629 = CARTESIAN_POINT('',(-6.577848345501,5.596291201784,-2.39414100328
    ));
#630 = DIRECTION('',(-0.342020143326,0.,0.939692620786));
#631 = DIRECTION('',(0.939692620786,0.,0.342020143326));
#632 = TOROIDAL_SURFACE('',#633,7.,1.);
#633 = AXIS2_PLACEMENT_3D('',#634,#635,#636);
#634 = CARTESIAN_POINT('',(0.,5.596291201784,0.));
#635 = DIRECTION('',(-0.,-1.,-0.));
#636 = DIRECTION('',(0.,0.,-1.));
#637 = ADVANCED_FACE('',(#638),#664,.T.);
#638 = FACE_BOUND('',#639,.T.);
#639 = EDGE_LOOP('',(#640,#651,#657,#658));
#640 = ORIENTED_EDGE('',*,*,#641,.T.);
#641 = EDGE_CURVE('',#642,#644,#646,.T.);
#642 = VERTEX_POINT('',#643);
#643 = CARTESIAN_POINT('',(0.,33.,-8.));
#644 = VERTEX_POINT('',#645);
#645 = CARTESIAN_POINT('',(9.797174393179E-16,33.,8.));
#646 = CIRCLE('',#647,8.);
#647 = AXIS2_PLACEMENT_3D('',#648,#649,#650);
#648 = CARTESIAN_POINT('',(0.,33.,0.));
#649 = DIRECTION('',(0.,-1.,-0.));
#650 = DIRECTION('',(0.,0.,-1.));
#651 = ORIENTED_EDGE('',*,*,#652,.T.);
#652 = EDGE_CURVE('',#644,#576,#653,.T.);
#653 = LINE('',#654,#655);
#654 = CARTESIAN_POINT('',(9.797174393179E-16,0.1,8.));
#655 = VECTOR('',#656,1.);
#656 = DIRECTION('',(-0.,-1.,-0.));
#657 = ORIENTED_EDGE('',*,*,#573,.F.);
#658 = ORIENTED_EDGE('',*,*,#659,.F.);
#659 = EDGE_CURVE('',#642,#574,#660,.T.);
#660 = LINE('',#661,#662);
#661 = CARTESIAN_POINT('',(0.,0.1,-8.));
#662 = VECTOR('',#663,1.);
#663 = DIRECTION('',(-0.,-1.,-0.));
#664 = CYLINDRICAL_SURFACE('',#665,8.);
#665 = AXIS2_PLACEMENT_3D('',#666,#667,#668);
#666 = CARTESIAN_POINT('',(0.,0.1,0.));
#667 = DIRECTION('',(-0.,-1.,-0.));
#668 = DIRECTION('',(0.,0.,-1.));
#669 = ADVANCED_FACE('',(#670),#689,.T.);
#670 = FACE_BOUND('',#671,.T.);
#671 = EDGE_LOOP('',(#672,#681,#682,#683));
#672 = ORIENTED_EDGE('',*,*,#673,.T.);
#673 = EDGE_CURVE('',#674,#642,#676,.T.);
#674 = VERTEX_POINT('',#675);
#675 = CARTESIAN_POINT('',(-7.517540966287,33.,-2.736161146605));
#676 = CIRCLE('',#677,8.);
#677 = AXIS2_PLACEMENT_3D('',#678,#679,#680);
#678 = CARTESIAN_POINT('',(0.,33.,0.));
#679 = DIRECTION('',(0.,-1.,-0.));
#680 = DIRECTION('',(0.,0.,-1.));
#681 = ORIENTED_EDGE('',*,*,#659,.T.);
#682 = ORIENTED_EDGE('',*,*,#607,.F.);
#683 = ORIENTED_EDGE('',*,*,#684,.F.);
#684 = EDGE_CURVE('',#674,#608,#685,.T.);
#685 = LINE('',#686,#687);
#686 = CARTESIAN_POINT('',(-7.517540966287,33.,-2.736161146605));
#687 = VECTOR('',#688,1.);
#688 = DIRECTION('',(5.948489897782E-17,-1.,2.165073261626E-17));
#689 = CYLINDRICAL_SURFACE('',#690,8.);
#690 = AXIS2_PLACEMENT_3D('',#691,#692,#693);
#691 = CARTESIAN_POINT('',(0.,0.1,0.));
#692 = DIRECTION('',(-0.,-1.,-0.));
#693 = DIRECTION('',(0.,0.,-1.));
#694 = ADVANCED_FACE('',(#695),#723,.T.);
#695 = FACE_BOUND('',#696,.T.);
#696 = EDGE_LOOP('',(#697,#708,#715,#716));
#697 = ORIENTED_EDGE('',*,*,#698,.T.);
#698 = EDGE_CURVE('',#699,#701,#703,.T.);
#699 = VERTEX_POINT('',#700);
#700 = CARTESIAN_POINT('',(0.,34.,-7.));
#701 = VERTEX_POINT('',#702);
#702 = CARTESIAN_POINT('',(9.184850993605E-16,34.,7.));
#703 = CIRCLE('',#704,7.);
#704 = AXIS2_PLACEMENT_3D('',#705,#706,#707);
#705 = CARTESIAN_POINT('',(0.,34.,0.));
#706 = DIRECTION('',(0.,-1.,-0.));
#707 = DIRECTION('',(0.,0.,-1.));
#708 = ORIENTED_EDGE('',*,*,#709,.T.);
#709 = EDGE_CURVE('',#701,#644,#710,.T.);
#710 = CIRCLE('',#711,1.);
#711 = AXIS2_PLACEMENT_3D('',#712,#713,#714);
#712 = CARTESIAN_POINT('',(8.572527594031E-16,33.,7.));
#713 = DIRECTION('',(1.,0.,-1.224646799147E-16));
#714 = DIRECTION('',(-1.224646799147E-16,0.,-1.));
#715 = ORIENTED_EDGE('',*,*,#641,.F.);
#716 = ORIENTED_EDGE('',*,*,#717,.F.);
#717 = EDGE_CURVE('',#699,#642,#718,.T.);
#718 = CIRCLE('',#719,1.);
#719 = AXIS2_PLACEMENT_3D('',#720,#721,#722);
#720 = CARTESIAN_POINT('',(0.,33.,-7.));
#721 = DIRECTION('',(-1.,0.,0.));
#722 = DIRECTION('',(0.,0.,1.));
#723 = TOROIDAL_SURFACE('',#724,7.,1.);
#724 = AXIS2_PLACEMENT_3D('',#725,#726,#727);
#725 = CARTESIAN_POINT('',(0.,33.,0.));
#726 = DIRECTION('',(-0.,-1.,-0.));
#727 = DIRECTION('',(0.,0.,-1.));
#728 = ADVANCED_FACE('',(#729),#749,.T.);
#729 = FACE_BOUND('',#730,.T.);
#730 = EDGE_LOOP('',(#731,#740,#741,#742));
#731 = ORIENTED_EDGE('',*,*,#732,.T.);
#732 = EDGE_CURVE('',#733,#699,#735,.T.);
#733 = VERTEX_POINT('',#734);
#734 = CARTESIAN_POINT('',(-6.577848345501,34.,-2.39414100328));
#735 = CIRCLE('',#736,7.);
#736 = AXIS2_PLACEMENT_3D('',#737,#738,#739);
#737 = CARTESIAN_POINT('',(0.,34.,0.));
#738 = DIRECTION('',(0.,-1.,-0.));
#739 = DIRECTION('',(0.,0.,-1.));
#740 = ORIENTED_EDGE('',*,*,#717,.T.);
#741 = ORIENTED_EDGE('',*,*,#673,.F.);
#742 = ORIENTED_EDGE('',*,*,#743,.F.);
#743 = EDGE_CURVE('',#733,#674,#744,.T.);
#744 = CIRCLE('',#745,1.);
#745 = AXIS2_PLACEMENT_3D('',#746,#747,#748);
#746 = CARTESIAN_POINT('',(-6.577848345501,33.,-2.39414100328));
#747 = DIRECTION('',(-0.342020143326,0.,0.939692620786));
#748 = DIRECTION('',(0.939692620786,0.,0.342020143326));
#749 = TOROIDAL_SURFACE('',#750,7.,1.);
#750 = AXIS2_PLACEMENT_3D('',#751,#752,#753);
#751 = CARTESIAN_POINT('',(0.,33.,0.));
#752 = DIRECTION('',(-0.,-1.,-0.));
#753 = DIRECTION('',(0.,0.,-1.));
#754 = ADVANCED_FACE('',(#755),#791,.F.);
#755 = FACE_BOUND('',#756,.T.);
#756 = EDGE_LOOP('',(#757,#766,#767,#768,#776,#783,#784,#785));
#757 = ORIENTED_EDGE('',*,*,#758,.T.);
#758 = EDGE_CURVE('',#759,#238,#761,.T.);
#759 = VERTEX_POINT('',#760);
#760 = CARTESIAN_POINT('',(-4.69846310393,34.,-1.710100716628));
#761 = CIRCLE('',#762,5.);
#762 = AXIS2_PLACEMENT_3D('',#763,#764,#765);
#763 = CARTESIAN_POINT('',(0.,34.,0.));
#764 = DIRECTION('',(0.,-1.,-0.));
#765 = DIRECTION('',(0.,0.,-1.));
#766 = ORIENTED_EDGE('',*,*,#245,.T.);
#767 = ORIENTED_EDGE('',*,*,#213,.T.);
#768 = ORIENTED_EDGE('',*,*,#769,.T.);
#769 = EDGE_CURVE('',#189,#770,#772,.T.);
#770 = VERTEX_POINT('',#771);
#771 = CARTESIAN_POINT('',(-6.577848345501,34.,2.39414100328));
#772 = LINE('',#773,#774);
#773 = CARTESIAN_POINT('',(-4.69846310393,34.,1.710100716628));
#774 = VECTOR('',#775,1.);
#775 = DIRECTION('',(-0.939692620786,0.,0.342020143326));
#776 = ORIENTED_EDGE('',*,*,#777,.F.);
#777 = EDGE_CURVE('',#701,#770,#778,.T.);
#778 = CIRCLE('',#779,7.);
#779 = AXIS2_PLACEMENT_3D('',#780,#781,#782);
#780 = CARTESIAN_POINT('',(0.,34.,0.));
#781 = DIRECTION('',(0.,-1.,-0.));
#782 = DIRECTION('',(0.,0.,-1.));
#783 = ORIENTED_EDGE('',*,*,#698,.F.);
#784 = ORIENTED_EDGE('',*,*,#732,.F.);
#785 = ORIENTED_EDGE('',*,*,#786,.F.);
#786 = EDGE_CURVE('',#759,#733,#787,.T.);
#787 = LINE('',#788,#789);
#788 = CARTESIAN_POINT('',(-4.69846310393,34.,-1.710100716628));
#789 = VECTOR('',#790,1.);
#790 = DIRECTION('',(-0.939692620786,0.,-0.342020143326));
#791 = PLANE('',#792);
#792 = AXIS2_PLACEMENT_3D('',#793,#794,#795);
#793 = CARTESIAN_POINT('',(-5.,34.,0.));
#794 = DIRECTION('',(0.,-1.,-0.));
#795 = DIRECTION('',(0.,0.,-1.));
#796 = ADVANCED_FACE('',(#797),#817,.T.);
#797 = FACE_BOUND('',#798,.T.);
#798 = EDGE_LOOP('',(#799,#800,#801,#810));
#799 = ORIENTED_EDGE('',*,*,#709,.F.);
#800 = ORIENTED_EDGE('',*,*,#777,.T.);
#801 = ORIENTED_EDGE('',*,*,#802,.T.);
#802 = EDGE_CURVE('',#770,#803,#805,.T.);
#803 = VERTEX_POINT('',#804);
#804 = CARTESIAN_POINT('',(-7.517540966287,33.,2.736161146605));
#805 = CIRCLE('',#806,1.);
#806 = AXIS2_PLACEMENT_3D('',#807,#808,#809);
#807 = CARTESIAN_POINT('',(-6.577848345501,33.,2.39414100328));
#808 = DIRECTION('',(0.342020143326,0.,0.939692620786));
#809 = DIRECTION('',(0.939692620786,0.,-0.342020143326));
#810 = ORIENTED_EDGE('',*,*,#811,.F.);
#811 = EDGE_CURVE('',#644,#803,#812,.T.);
#812 = CIRCLE('',#813,8.);
#813 = AXIS2_PLACEMENT_3D('',#814,#815,#816);
#814 = CARTESIAN_POINT('',(0.,33.,0.));
#815 = DIRECTION('',(0.,-1.,-0.));
#816 = DIRECTION('',(0.,0.,-1.));
#817 = TOROIDAL_SURFACE('',#818,7.,1.);
#818 = AXIS2_PLACEMENT_3D('',#819,#820,#821);
#819 = CARTESIAN_POINT('',(0.,33.,0.));
#820 = DIRECTION('',(-0.,-1.,-0.));
#821 = DIRECTION('',(0.,0.,-1.));
#822 = ADVANCED_FACE('',(#823),#842,.T.);
#823 = FACE_BOUND('',#824,.T.);
#824 = EDGE_LOOP('',(#825,#826,#827,#835));
#825 = ORIENTED_EDGE('',*,*,#652,.F.);
#826 = ORIENTED_EDGE('',*,*,#811,.T.);
#827 = ORIENTED_EDGE('',*,*,#828,.T.);
#828 = EDGE_CURVE('',#803,#829,#831,.T.);
#829 = VERTEX_POINT('',#830);
#830 = CARTESIAN_POINT('',(-7.517540966287,5.596291201784,2.736161146605
    ));
#831 = LINE('',#832,#833);
#832 = CARTESIAN_POINT('',(-7.517540966287,33.,2.736161146605));
#833 = VECTOR('',#834,1.);
#834 = DIRECTION('',(5.948489897782E-17,-1.,-2.165073261626E-17));
#835 = ORIENTED_EDGE('',*,*,#836,.F.);
#836 = EDGE_CURVE('',#576,#829,#837,.T.);
#837 = CIRCLE('',#838,8.);
#838 = AXIS2_PLACEMENT_3D('',#839,#840,#841);
#839 = CARTESIAN_POINT('',(0.,5.596291201784,0.));
#840 = DIRECTION('',(0.,-1.,-0.));
#841 = DIRECTION('',(0.,0.,-1.));
#842 = CYLINDRICAL_SURFACE('',#843,8.);
#843 = AXIS2_PLACEMENT_3D('',#844,#845,#846);
#844 = CARTESIAN_POINT('',(0.,0.1,0.));
#845 = DIRECTION('',(-0.,-1.,-0.));
#846 = DIRECTION('',(0.,0.,-1.));
#847 = ADVANCED_FACE('',(#848),#860,.T.);
#848 = FACE_BOUND('',#849,.T.);
#849 = EDGE_LOOP('',(#850,#851,#852,#859));
#850 = ORIENTED_EDGE('',*,*,#584,.F.);
#851 = ORIENTED_EDGE('',*,*,#836,.T.);
#852 = ORIENTED_EDGE('',*,*,#853,.T.);
#853 = EDGE_CURVE('',#829,#514,#854,.T.);
#854 = CIRCLE('',#855,1.);
#855 = AXIS2_PLACEMENT_3D('',#856,#857,#858);
#856 = CARTESIAN_POINT('',(-6.577848345501,5.596291201784,2.39414100328)
  );
#857 = DIRECTION('',(0.342020143326,0.,0.939692620786));
#858 = DIRECTION('',(0.939692620786,0.,-0.342020143326));
#859 = ORIENTED_EDGE('',*,*,#522,.F.);
#860 = TOROIDAL_SURFACE('',#861,7.,1.);
#861 = AXIS2_PLACEMENT_3D('',#862,#863,#864);
#862 = CARTESIAN_POINT('',(0.,5.596291201784,0.));
#863 = DIRECTION('',(-0.,-1.,-0.));
#864 = DIRECTION('',(0.,0.,-1.));
#865 = ADVANCED_FACE('',(#866),#878,.F.);
#866 = FACE_BOUND('',#867,.F.);
#867 = EDGE_LOOP('',(#868,#869,#870,#877));
#868 = ORIENTED_EDGE('',*,*,#557,.T.);
#869 = ORIENTED_EDGE('',*,*,#617,.F.);
#870 = ORIENTED_EDGE('',*,*,#871,.T.);
#871 = EDGE_CURVE('',#618,#95,#872,.T.);
#872 = CIRCLE('',#873,1.0625);
#873 = AXIS2_PLACEMENT_3D('',#874,#875,#876);
#874 = CARTESIAN_POINT('',(-8.046118065479,4.25,-2.928547477226));
#875 = DIRECTION('',(0.342020143326,0.,-0.939692620786));
#876 = DIRECTION('',(0.939692620786,0.,0.342020143326));
#877 = ORIENTED_EDGE('',*,*,#94,.T.);
#878 = TOROIDAL_SURFACE('',#879,8.5625,1.0625);
#879 = AXIS2_PLACEMENT_3D('',#880,#881,#882);
#880 = CARTESIAN_POINT('',(0.,4.25,0.));
#881 = DIRECTION('',(-0.,-1.,-0.));
#882 = DIRECTION('',(0.,0.,-1.));
#883 = ADVANCED_FACE('',(#884),#904,.T.);
#884 = FACE_BOUND('',#885,.T.);
#885 = EDGE_LOOP('',(#886,#887,#888,#897));
#886 = ORIENTED_EDGE('',*,*,#472,.F.);
#887 = ORIENTED_EDGE('',*,*,#152,.T.);
#888 = ORIENTED_EDGE('',*,*,#889,.T.);
#889 = EDGE_CURVE('',#153,#890,#892,.T.);
#890 = VERTEX_POINT('',#891);
#891 = CARTESIAN_POINT('',(-7.517540966287,2.903708798216,2.736161146605
    ));
#892 = CIRCLE('',#893,1.);
#893 = AXIS2_PLACEMENT_3D('',#894,#895,#896);
#894 = CARTESIAN_POINT('',(-6.577848345501,2.903708798216,2.39414100328)
  );
#895 = DIRECTION('',(0.342020143326,0.,0.939692620786));
#896 = DIRECTION('',(0.939692620786,0.,-0.342020143326));
#897 = ORIENTED_EDGE('',*,*,#898,.F.);
#898 = EDGE_CURVE('',#417,#890,#899,.T.);
#899 = CIRCLE('',#900,8.);
#900 = AXIS2_PLACEMENT_3D('',#901,#902,#903);
#901 = CARTESIAN_POINT('',(0.,2.903708798216,0.));
#902 = DIRECTION('',(0.,-1.,-0.));
#903 = DIRECTION('',(0.,0.,-1.));
#904 = TOROIDAL_SURFACE('',#905,7.,1.);
#905 = AXIS2_PLACEMENT_3D('',#906,#907,#908);
#906 = CARTESIAN_POINT('',(0.,2.903708798216,0.));
#907 = DIRECTION('',(-0.,-1.,-0.));
#908 = DIRECTION('',(0.,0.,-1.));
#909 = ADVANCED_FACE('',(#910),#929,.T.);
#910 = FACE_BOUND('',#911,.T.);
#911 = EDGE_LOOP('',(#912,#913,#914,#922));
#912 = ORIENTED_EDGE('',*,*,#425,.F.);
#913 = ORIENTED_EDGE('',*,*,#898,.T.);
#914 = ORIENTED_EDGE('',*,*,#915,.T.);
#915 = EDGE_CURVE('',#890,#916,#918,.T.);
#916 = VERTEX_POINT('',#917);
#917 = CARTESIAN_POINT('',(-7.517540966287,1.,2.736161146605));
#918 = LINE('',#919,#920);
#919 = CARTESIAN_POINT('',(-7.517540966287,2.903708798216,2.736161146605
    ));
#920 = VECTOR('',#921,1.);
#921 = DIRECTION('',(0.,-1.,0.));
#922 = ORIENTED_EDGE('',*,*,#923,.F.);
#923 = EDGE_CURVE('',#339,#916,#924,.T.);
#924 = CIRCLE('',#925,8.);
#925 = AXIS2_PLACEMENT_3D('',#926,#927,#928);
#926 = CARTESIAN_POINT('',(0.,1.,0.));
#927 = DIRECTION('',(0.,-1.,-0.));
#928 = DIRECTION('',(0.,0.,-1.));
#929 = CYLINDRICAL_SURFACE('',#930,8.);
#930 = AXIS2_PLACEMENT_3D('',#931,#932,#933);
#931 = CARTESIAN_POINT('',(0.,0.1,0.));
#932 = DIRECTION('',(-0.,-1.,-0.));
#933 = DIRECTION('',(0.,0.,-1.));
#934 = ADVANCED_FACE('',(#935),#955,.T.);
#935 = FACE_BOUND('',#936,.T.);
#936 = EDGE_LOOP('',(#937,#938,#939,#948));
#937 = ORIENTED_EDGE('',*,*,#347,.F.);
#938 = ORIENTED_EDGE('',*,*,#923,.T.);
#939 = ORIENTED_EDGE('',*,*,#940,.T.);
#940 = EDGE_CURVE('',#916,#941,#943,.T.);
#941 = VERTEX_POINT('',#942);
#942 = CARTESIAN_POINT('',(-6.577848345501,1.084202172486E-15,
    2.39414100328));
#943 = CIRCLE('',#944,1.);
#944 = AXIS2_PLACEMENT_3D('',#945,#946,#947);
#945 = CARTESIAN_POINT('',(-6.577848345501,1.,2.39414100328));
#946 = DIRECTION('',(0.342020143326,0.,0.939692620786));
#947 = DIRECTION('',(0.939692620786,0.,-0.342020143326));
#948 = ORIENTED_EDGE('',*,*,#949,.F.);
#949 = EDGE_CURVE('',#348,#941,#950,.T.);
#950 = CIRCLE('',#951,7.);
#951 = AXIS2_PLACEMENT_3D('',#952,#953,#954);
#952 = CARTESIAN_POINT('',(0.,6.505213034913E-16,0.));
#953 = DIRECTION('',(0.,-1.,-0.));
#954 = DIRECTION('',(0.,0.,-1.));
#955 = TOROIDAL_SURFACE('',#956,7.,1.);
#956 = AXIS2_PLACEMENT_3D('',#957,#958,#959);
#957 = CARTESIAN_POINT('',(0.,1.,0.));
#958 = DIRECTION('',(-0.,-1.,-0.));
#959 = DIRECTION('',(0.,0.,-1.));
#960 = ADVANCED_FACE('',(#961),#989,.F.);
#961 = FACE_BOUND('',#962,.T.);
#962 = EDGE_LOOP('',(#963,#964,#965,#966,#972,#973,#974,#983));
#963 = ORIENTED_EDGE('',*,*,#390,.T.);
#964 = ORIENTED_EDGE('',*,*,#356,.T.);
#965 = ORIENTED_EDGE('',*,*,#949,.T.);
#966 = ORIENTED_EDGE('',*,*,#967,.T.);
#967 = EDGE_CURVE('',#941,#262,#968,.T.);
#968 = LINE('',#969,#970);
#969 = CARTESIAN_POINT('',(-6.577848345501,8.673617379884E-16,
    2.39414100328));
#970 = VECTOR('',#971,1.);
#971 = DIRECTION('',(0.939692620786,-1.067522139063E-15,-0.342020143326)
  );
#972 = ORIENTED_EDGE('',*,*,#271,.F.);
#973 = ORIENTED_EDGE('',*,*,#303,.F.);
#974 = ORIENTED_EDGE('',*,*,#975,.F.);
#975 = EDGE_CURVE('',#976,#304,#978,.T.);
#976 = VERTEX_POINT('',#977);
#977 = CARTESIAN_POINT('',(-5.814348091113,0.,-2.116249636828));
#978 = CIRCLE('',#979,6.1875);
#979 = AXIS2_PLACEMENT_3D('',#980,#981,#982);
#980 = CARTESIAN_POINT('',(0.,0.,0.));
#981 = DIRECTION('',(0.,-1.,-0.));
#982 = DIRECTION('',(0.,0.,-1.));
#983 = ORIENTED_EDGE('',*,*,#984,.F.);
#984 = EDGE_CURVE('',#391,#976,#985,.T.);
#985 = LINE('',#986,#987);
#986 = CARTESIAN_POINT('',(-6.577848345501,8.673617379884E-16,
    -2.39414100328));
#987 = VECTOR('',#988,1.);
#988 = DIRECTION('',(0.939692620786,-1.067522139063E-15,0.342020143326)
  );
#989 = PLANE('',#990);
#990 = AXIS2_PLACEMENT_3D('',#991,#992,#993);
#991 = CARTESIAN_POINT('',(-7.,3.252606517457E-16,0.));
#992 = DIRECTION('',(0.,1.,0.));
#993 = DIRECTION('',(0.,-0.,1.));
#994 = ADVANCED_FACE('',(#995),#1014,.F.);
#995 = FACE_BOUND('',#996,.F.);
#996 = EDGE_LOOP('',(#997,#998,#1006,#1013));
#997 = ORIENTED_EDGE('',*,*,#975,.F.);
#998 = ORIENTED_EDGE('',*,*,#999,.T.);
#999 = EDGE_CURVE('',#976,#1000,#1002,.T.);
#1000 = VERTEX_POINT('',#1001);
#1001 = CARTESIAN_POINT('',(-5.814348091113,0.1,-2.116249636828));
#1002 = LINE('',#1003,#1004);
#1003 = CARTESIAN_POINT('',(-5.814348091113,0.,-2.116249636828));
#1004 = VECTOR('',#1005,1.);
#1005 = DIRECTION('',(0.,1.,0.));
#1006 = ORIENTED_EDGE('',*,*,#1007,.T.);
#1007 = EDGE_CURVE('',#1000,#313,#1008,.T.);
#1008 = CIRCLE('',#1009,6.1875);
#1009 = AXIS2_PLACEMENT_3D('',#1010,#1011,#1012);
#1010 = CARTESIAN_POINT('',(0.,0.1,0.));
#1011 = DIRECTION('',(0.,-1.,-0.));
#1012 = DIRECTION('',(0.,0.,-1.));
#1013 = ORIENTED_EDGE('',*,*,#312,.T.);
#1014 = CYLINDRICAL_SURFACE('',#1015,6.1875);
#1015 = AXIS2_PLACEMENT_3D('',#1016,#1017,#1018);
#1016 = CARTESIAN_POINT('',(0.,0.1,0.));
#1017 = DIRECTION('',(-0.,-1.,-0.));
#1018 = DIRECTION('',(0.,0.,-1.));
#1019 = ADVANCED_FACE('',(#1020),#1032,.F.);
#1020 = FACE_BOUND('',#1021,.T.);
#1021 = EDGE_LOOP('',(#1022,#1029,#1030,#1031));
#1022 = ORIENTED_EDGE('',*,*,#1023,.T.);
#1023 = EDGE_CURVE('',#264,#1000,#1024,.T.);
#1024 = CIRCLE('',#1025,6.1875);
#1025 = AXIS2_PLACEMENT_3D('',#1026,#1027,#1028);
#1026 = CARTESIAN_POINT('',(0.,0.1,0.));
#1027 = DIRECTION('',(0.,-1.,-0.));
#1028 = DIRECTION('',(0.,0.,-1.));
#1029 = ORIENTED_EDGE('',*,*,#1007,.T.);
#1030 = ORIENTED_EDGE('',*,*,#320,.T.);
#1031 = ORIENTED_EDGE('',*,*,#288,.T.);
#1032 = PLANE('',#1033);
#1033 = AXIS2_PLACEMENT_3D('',#1034,#1035,#1036);
#1034 = CARTESIAN_POINT('',(-6.1875,0.1,0.));
#1035 = DIRECTION('',(0.,1.,0.));
#1036 = DIRECTION('',(0.,-0.,1.));
#1037 = ADVANCED_FACE('',(#1038),#1058,.F.);
#1038 = FACE_BOUND('',#1039,.T.);
#1039 = EDGE_LOOP('',(#1040,#1049,#1050,#1051));
#1040 = ORIENTED_EDGE('',*,*,#1041,.F.);
#1041 = EDGE_CURVE('',#187,#1042,#1044,.T.);
#1042 = VERTEX_POINT('',#1043);
#1043 = CARTESIAN_POINT('',(-4.69846310393,33.9,-1.710100716628));
#1044 = CIRCLE('',#1045,5.);
#1045 = AXIS2_PLACEMENT_3D('',#1046,#1047,#1048);
#1046 = CARTESIAN_POINT('',(0.,33.9,0.));
#1047 = DIRECTION('',(0.,-1.,-0.));
#1048 = DIRECTION('',(0.,0.,-1.));
#1049 = ORIENTED_EDGE('',*,*,#196,.F.);
#1050 = ORIENTED_EDGE('',*,*,#228,.F.);
#1051 = ORIENTED_EDGE('',*,*,#1052,.F.);
#1052 = EDGE_CURVE('',#1042,#229,#1053,.T.);
#1053 = CIRCLE('',#1054,5.);
#1054 = AXIS2_PLACEMENT_3D('',#1055,#1056,#1057);
#1055 = CARTESIAN_POINT('',(0.,33.9,0.));
#1056 = DIRECTION('',(0.,-1.,-0.));
#1057 = DIRECTION('',(0.,0.,-1.));
#1058 = PLANE('',#1059);
#1059 = AXIS2_PLACEMENT_3D('',#1060,#1061,#1062);
#1060 = CARTESIAN_POINT('',(0.,33.9,0.));
#1061 = DIRECTION('',(0.,-1.,-0.));
#1062 = DIRECTION('',(0.,0.,-1.));
#1063 = ADVANCED_FACE('',(#1064),#1075,.F.);
#1064 = FACE_BOUND('',#1065,.F.);
#1065 = EDGE_LOOP('',(#1066,#1067,#1073,#1074));
#1066 = ORIENTED_EDGE('',*,*,#1052,.F.);
#1067 = ORIENTED_EDGE('',*,*,#1068,.T.);
#1068 = EDGE_CURVE('',#1042,#759,#1069,.T.);
#1069 = LINE('',#1070,#1071);
#1070 = CARTESIAN_POINT('',(-4.69846310393,0.1,-1.710100716628));
#1071 = VECTOR('',#1072,1.);
#1072 = DIRECTION('',(0.,1.,0.));
#1073 = ORIENTED_EDGE('',*,*,#758,.T.);
#1074 = ORIENTED_EDGE('',*,*,#237,.T.);
#1075 = CYLINDRICAL_SURFACE('',#1076,5.);
#1076 = AXIS2_PLACEMENT_3D('',#1077,#1078,#1079);
#1077 = CARTESIAN_POINT('',(0.,0.1,0.));
#1078 = DIRECTION('',(-0.,-1.,-0.));
#1079 = DIRECTION('',(0.,0.,-1.));
#1080 = ADVANCED_FACE('',(#1081),#1107,.T.);
#1081 = FACE_BOUND('',#1082,.T.);
#1082 = EDGE_LOOP('',(#1083,#1084,#1092,#1101));
#1083 = ORIENTED_EDGE('',*,*,#1023,.F.);
#1084 = ORIENTED_EDGE('',*,*,#1085,.T.);
#1085 = EDGE_CURVE('',#264,#1086,#1088,.T.);
#1086 = VERTEX_POINT('',#1087);
#1087 = CARTESIAN_POINT('',(-5.814348091113,0.3,2.116249636828));
#1088 = LINE('',#1089,#1090);
#1089 = CARTESIAN_POINT('',(-5.814348091113,0.,2.116249636828));
#1090 = VECTOR('',#1091,1.);
#1091 = DIRECTION('',(0.,1.,0.));
#1092 = ORIENTED_EDGE('',*,*,#1093,.T.);
#1093 = EDGE_CURVE('',#1086,#1094,#1096,.T.);
#1094 = VERTEX_POINT('',#1095);
#1095 = CARTESIAN_POINT('',(-5.814348091113,0.3,-2.116249636828));
#1096 = CIRCLE('',#1097,6.1875);
#1097 = AXIS2_PLACEMENT_3D('',#1098,#1099,#1100);
#1098 = CARTESIAN_POINT('',(0.,0.3,0.));
#1099 = DIRECTION('',(0.,-1.,-0.));
#1100 = DIRECTION('',(0.,0.,-1.));
#1101 = ORIENTED_EDGE('',*,*,#1102,.F.);
#1102 = EDGE_CURVE('',#1000,#1094,#1103,.T.);
#1103 = LINE('',#1104,#1105);
#1104 = CARTESIAN_POINT('',(-5.814348091113,0.,-2.116249636828));
#1105 = VECTOR('',#1106,1.);
#1106 = DIRECTION('',(0.,1.,0.));
#1107 = CYLINDRICAL_SURFACE('',#1108,6.1875);
#1108 = AXIS2_PLACEMENT_3D('',#1109,#1110,#1111);
#1109 = CARTESIAN_POINT('',(0.,0.1,0.));
#1110 = DIRECTION('',(-0.,-1.,-0.));
#1111 = DIRECTION('',(0.,0.,-1.));
#1112 = ADVANCED_FACE('',(#1113),#1139,.T.);
#1113 = FACE_BOUND('',#1114,.T.);
#1114 = EDGE_LOOP('',(#1115,#1116,#1124,#1133));
#1115 = ORIENTED_EDGE('',*,*,#1041,.T.);
#1116 = ORIENTED_EDGE('',*,*,#1117,.F.);
#1117 = EDGE_CURVE('',#1118,#1042,#1120,.T.);
#1118 = VERTEX_POINT('',#1119);
#1119 = CARTESIAN_POINT('',(-4.69846310393,0.3,-1.710100716628));
#1120 = LINE('',#1121,#1122);
#1121 = CARTESIAN_POINT('',(-4.69846310393,0.3,-1.710100716628));
#1122 = VECTOR('',#1123,1.);
#1123 = DIRECTION('',(0.,1.,0.));
#1124 = ORIENTED_EDGE('',*,*,#1125,.F.);
#1125 = EDGE_CURVE('',#1126,#1118,#1128,.T.);
#1126 = VERTEX_POINT('',#1127);
#1127 = CARTESIAN_POINT('',(-4.69846310393,0.3,1.710100716628));
#1128 = CIRCLE('',#1129,5.);
#1129 = AXIS2_PLACEMENT_3D('',#1130,#1131,#1132);
#1130 = CARTESIAN_POINT('',(0.,0.3,0.));
#1131 = DIRECTION('',(0.,-1.,-0.));
#1132 = DIRECTION('',(0.,0.,-1.));
#1133 = ORIENTED_EDGE('',*,*,#1134,.T.);
#1134 = EDGE_CURVE('',#1126,#187,#1135,.T.);
#1135 = LINE('',#1136,#1137);
#1136 = CARTESIAN_POINT('',(-4.69846310393,0.3,1.710100716628));
#1137 = VECTOR('',#1138,1.);
#1138 = DIRECTION('',(0.,1.,0.));
#1139 = CYLINDRICAL_SURFACE('',#1140,5.);
#1140 = AXIS2_PLACEMENT_3D('',#1141,#1142,#1143);
#1141 = CARTESIAN_POINT('',(0.,0.1,0.));
#1142 = DIRECTION('',(-0.,-1.,-0.));
#1143 = DIRECTION('',(0.,0.,-1.));
#1144 = ADVANCED_FACE('',(#1145),#1161,.T.);
#1145 = FACE_BOUND('',#1146,.T.);
#1146 = EDGE_LOOP('',(#1147,#1148,#1154,#1155));
#1147 = ORIENTED_EDGE('',*,*,#1125,.T.);
#1148 = ORIENTED_EDGE('',*,*,#1149,.F.);
#1149 = EDGE_CURVE('',#1094,#1118,#1150,.T.);
#1150 = LINE('',#1151,#1152);
#1151 = CARTESIAN_POINT('',(-5.814348091113,0.3,-2.116249636828));
#1152 = VECTOR('',#1153,1.);
#1153 = DIRECTION('',(0.939692620786,0.,0.342020143326));
#1154 = ORIENTED_EDGE('',*,*,#1093,.F.);
#1155 = ORIENTED_EDGE('',*,*,#1156,.T.);
#1156 = EDGE_CURVE('',#1086,#1126,#1157,.T.);
#1157 = LINE('',#1158,#1159);
#1158 = CARTESIAN_POINT('',(-5.814348091113,0.3,2.116249636828));
#1159 = VECTOR('',#1160,1.);
#1160 = DIRECTION('',(0.939692620786,0.,-0.342020143326));
#1161 = PLANE('',#1162);
#1162 = AXIS2_PLACEMENT_3D('',#1163,#1164,#1165);
#1163 = CARTESIAN_POINT('',(-5.814348091113,0.3,2.116249636828));
#1164 = DIRECTION('',(0.,1.,0.));
#1165 = DIRECTION('',(0.,-0.,1.));
#1166 = ADVANCED_FACE('',(#1167),#1184,.F.);
#1167 = FACE_BOUND('',#1168,.T.);
#1168 = EDGE_LOOP('',(#1169,#1170,#1171,#1172,#1173,#1174,#1175,#1176,
    #1177,#1178,#1179,#1180,#1181,#1182,#1183));
#1169 = ORIENTED_EDGE('',*,*,#261,.F.);
#1170 = ORIENTED_EDGE('',*,*,#967,.F.);
#1171 = ORIENTED_EDGE('',*,*,#940,.F.);
#1172 = ORIENTED_EDGE('',*,*,#915,.F.);
#1173 = ORIENTED_EDGE('',*,*,#889,.F.);
#1174 = ORIENTED_EDGE('',*,*,#161,.F.);
#1175 = ORIENTED_EDGE('',*,*,#513,.F.);
#1176 = ORIENTED_EDGE('',*,*,#853,.F.);
#1177 = ORIENTED_EDGE('',*,*,#828,.F.);
#1178 = ORIENTED_EDGE('',*,*,#802,.F.);
#1179 = ORIENTED_EDGE('',*,*,#769,.F.);
#1180 = ORIENTED_EDGE('',*,*,#186,.F.);
#1181 = ORIENTED_EDGE('',*,*,#1134,.F.);
#1182 = ORIENTED_EDGE('',*,*,#1156,.F.);
#1183 = ORIENTED_EDGE('',*,*,#1085,.F.);
#1184 = PLANE('',#1185);
#1185 = AXIS2_PLACEMENT_3D('',#1186,#1187,#1188);
#1186 = CARTESIAN_POINT('',(-6.577848345501,33.,2.39414100328));
#1187 = DIRECTION('',(0.342020143326,0.,0.939692620786));
#1188 = DIRECTION('',(0.939692620786,0.,-0.342020143326));
#1189 = ADVANCED_FACE('',(#1190),#1207,.T.);
#1190 = FACE_BOUND('',#1191,.T.);
#1191 = EDGE_LOOP('',(#1192,#1193,#1194,#1195,#1196,#1197,#1198,#1199,
    #1200,#1201,#1202,#1203,#1204,#1205,#1206));
#1192 = ORIENTED_EDGE('',*,*,#999,.T.);
#1193 = ORIENTED_EDGE('',*,*,#1102,.T.);
#1194 = ORIENTED_EDGE('',*,*,#1149,.T.);
#1195 = ORIENTED_EDGE('',*,*,#1117,.T.);
#1196 = ORIENTED_EDGE('',*,*,#1068,.T.);
#1197 = ORIENTED_EDGE('',*,*,#786,.T.);
#1198 = ORIENTED_EDGE('',*,*,#743,.T.);
#1199 = ORIENTED_EDGE('',*,*,#684,.T.);
#1200 = ORIENTED_EDGE('',*,*,#626,.T.);
#1201 = ORIENTED_EDGE('',*,*,#871,.T.);
#1202 = ORIENTED_EDGE('',*,*,#103,.T.);
#1203 = ORIENTED_EDGE('',*,*,#498,.T.);
#1204 = ORIENTED_EDGE('',*,*,#457,.T.);
#1205 = ORIENTED_EDGE('',*,*,#399,.T.);
#1206 = ORIENTED_EDGE('',*,*,#984,.T.);
#1207 = PLANE('',#1208);
#1208 = AXIS2_PLACEMENT_3D('',#1209,#1210,#1211);
#1209 = CARTESIAN_POINT('',(-6.577848345501,33.,-2.39414100328));
#1210 = DIRECTION('',(-0.342020143326,0.,0.939692620786));
#1211 = DIRECTION('',(0.939692620786,0.,0.342020143326));
#1212 = ( GEOMETRIC_REPRESENTATION_CONTEXT(3) 
GLOBAL_UNCERTAINTY_ASSIGNED_CONTEXT((#1216)) 
GLOBAL_UNIT_ASSIGNED_CONTEXT((#1213,#1214,#1215)) REPRESENTATION_CONTEXT
('Context #1','3D Context with UNIT and UNCERTAINTY') );
#1213 = ( LENGTH_UNIT() NAMED_UNIT(*) SI_UNIT(.MILLI.,.METRE.) );
#1214 = ( NAMED_UNIT(*) PLANE_ANGLE_UNIT() SI_UNIT($,.RADIAN.) );
#1215 = ( NAMED_UNIT(*) SI_UNIT($,.STERADIAN.) SOLID_ANGLE_UNIT() );
#1216 = UNCERTAINTY_MEASURE_WITH_UNIT(LENGTH_MEASURE(1.E-07),#1213,
  'distance_accuracy_value','confusion accuracy');
#1217 = CONTEXT_DEPENDENT_SHAPE_REPRESENTATION(#1218,#1220);
#1218 = ( REPRESENTATION_RELATIONSHIP('','',#67,#32) 
REPRESENTATION_RELATIONSHIP_WITH_TRANSFORMATION(#1219) 
SHAPE_REPRESENTATION_RELATIONSHIP() );
#1219 = ITEM_DEFINED_TRANSFORMATION('','',#11,#33);
#1220 = PRODUCT_DEFINITION_SHAPE('Placement','Placement of an item',
  #1221);
#1221 = NEXT_ASSEMBLY_USAGE_OCCURRENCE('1','ESK227M160AM2AA','',#27,#62,
  $);
#1222 = PRODUCT_RELATED_PRODUCT_CATEGORY('part',$,(#64));
#1223 = SHAPE_DEFINITION_REPRESENTATION(#1224,#1230);
#1224 = PRODUCT_DEFINITION_SHAPE('','',#1225);
#1225 = PRODUCT_DEFINITION('design','',#1226,#1229);
#1226 = PRODUCT_DEFINITION_FORMATION('','',#1227);
#1227 = PRODUCT('ESK227M160AM2AA001','ESK227M160AM2AA001','',(#1228));
#1228 = PRODUCT_CONTEXT('',#2,'mechanical');
#1229 = PRODUCT_DEFINITION_CONTEXT('part definition',#2,'design');
#1230 = ADVANCED_BREP_SHAPE_REPRESENTATION('',(#11,#1231),#1703);
#1231 = MANIFOLD_SOLID_BREP('',#1232);
#1232 = CLOSED_SHELL('',(#1233,#1277,#1319,#1351,#1383,#1415,#1449,#1481
    ,#1515,#1539,#1573,#1605,#1639,#1661,#1682));
#1233 = ADVANCED_FACE('',(#1234),#1272,.F.);
#1234 = FACE_BOUND('',#1235,.F.);
#1235 = EDGE_LOOP('',(#1236,#1247,#1256,#1265));
#1236 = ORIENTED_EDGE('',*,*,#1237,.T.);
#1237 = EDGE_CURVE('',#1238,#1240,#1242,.T.);
#1238 = VERTEX_POINT('',#1239);
#1239 = CARTESIAN_POINT('',(-7.289736694582,3.556456047566,
    2.653247172466));
#1240 = VERTEX_POINT('',#1241);
#1241 = CARTESIAN_POINT('',(-7.289736694582,3.556456047566,
    -2.653247172466));
#1242 = CIRCLE('',#1243,7.757575757576);
#1243 = AXIS2_PLACEMENT_3D('',#1244,#1245,#1246);
#1244 = CARTESIAN_POINT('',(0.,3.556456047566,0.));
#1245 = DIRECTION('',(0.,-1.,-0.));
#1246 = DIRECTION('',(0.,0.,-1.));
#1247 = ORIENTED_EDGE('',*,*,#1248,.F.);
#1248 = EDGE_CURVE('',#1249,#1240,#1251,.T.);
#1249 = VERTEX_POINT('',#1250);
#1250 = CARTESIAN_POINT('',(-7.047694655894,4.25,-2.565151074943));
#1251 = CIRCLE('',#1252,1.0625);
#1252 = AXIS2_PLACEMENT_3D('',#1253,#1254,#1255);
#1253 = CARTESIAN_POINT('',(-8.046118065479,4.25,-2.928547477226));
#1254 = DIRECTION('',(0.342020143326,0.,-0.939692620786));
#1255 = DIRECTION('',(0.939692620786,0.,0.342020143326));
#1256 = ORIENTED_EDGE('',*,*,#1257,.F.);
#1257 = EDGE_CURVE('',#1258,#1249,#1260,.T.);
#1258 = VERTEX_POINT('',#1259);
#1259 = CARTESIAN_POINT('',(-7.047694655894,4.25,2.565151074943));
#1260 = CIRCLE('',#1261,7.5);
#1261 = AXIS2_PLACEMENT_3D('',#1262,#1263,#1264);
#1262 = CARTESIAN_POINT('',(0.,4.25,0.));
#1263 = DIRECTION('',(0.,-1.,-0.));
#1264 = DIRECTION('',(0.,0.,-1.));
#1265 = ORIENTED_EDGE('',*,*,#1266,.T.);
#1266 = EDGE_CURVE('',#1258,#1238,#1267,.T.);
#1267 = CIRCLE('',#1268,1.0625);
#1268 = AXIS2_PLACEMENT_3D('',#1269,#1270,#1271);
#1269 = CARTESIAN_POINT('',(-8.046118065479,4.25,2.928547477226));
#1270 = DIRECTION('',(-0.342020143326,0.,-0.939692620786));
#1271 = DIRECTION('',(0.939692620786,0.,-0.342020143326));
#1272 = TOROIDAL_SURFACE('',#1273,8.5625,1.0625);
#1273 = AXIS2_PLACEMENT_3D('',#1274,#1275,#1276);
#1274 = CARTESIAN_POINT('',(0.,4.25,0.));
#1275 = DIRECTION('',(-0.,-1.,-0.));
#1276 = DIRECTION('',(0.,0.,-1.));
#1277 = ADVANCED_FACE('',(#1278),#1314,.F.);
#1278 = FACE_BOUND('',#1279,.F.);
#1279 = EDGE_LOOP('',(#1280,#1290,#1299,#1307));
#1280 = ORIENTED_EDGE('',*,*,#1281,.F.);
#1281 = EDGE_CURVE('',#1282,#1284,#1286,.T.);
#1282 = VERTEX_POINT('',#1283);
#1283 = CARTESIAN_POINT('',(-5.814348091113,0.,-2.116249636828));
#1284 = VERTEX_POINT('',#1285);
#1285 = CARTESIAN_POINT('',(-5.814348091113,0.3,-2.116249636828));
#1286 = LINE('',#1287,#1288);
#1287 = CARTESIAN_POINT('',(-5.814348091113,0.,-2.116249636828));
#1288 = VECTOR('',#1289,1.);
#1289 = DIRECTION('',(0.,1.,0.));
#1290 = ORIENTED_EDGE('',*,*,#1291,.F.);
#1291 = EDGE_CURVE('',#1292,#1282,#1294,.T.);
#1292 = VERTEX_POINT('',#1293);
#1293 = CARTESIAN_POINT('',(-5.814348091113,0.,2.116249636828));
#1294 = CIRCLE('',#1295,6.1875);
#1295 = AXIS2_PLACEMENT_3D('',#1296,#1297,#1298);
#1296 = CARTESIAN_POINT('',(0.,0.,0.));
#1297 = DIRECTION('',(0.,-1.,-0.));
#1298 = DIRECTION('',(0.,0.,-1.));
#1299 = ORIENTED_EDGE('',*,*,#1300,.T.);
#1300 = EDGE_CURVE('',#1292,#1301,#1303,.T.);
#1301 = VERTEX_POINT('',#1302);
#1302 = CARTESIAN_POINT('',(-5.814348091113,0.3,2.116249636828));
#1303 = LINE('',#1304,#1305);
#1304 = CARTESIAN_POINT('',(-5.814348091113,0.,2.116249636828));
#1305 = VECTOR('',#1306,1.);
#1306 = DIRECTION('',(0.,1.,0.));
#1307 = ORIENTED_EDGE('',*,*,#1308,.T.);
#1308 = EDGE_CURVE('',#1301,#1284,#1309,.T.);
#1309 = CIRCLE('',#1310,6.1875);
#1310 = AXIS2_PLACEMENT_3D('',#1311,#1312,#1313);
#1311 = CARTESIAN_POINT('',(0.,0.3,0.));
#1312 = DIRECTION('',(0.,-1.,-0.));
#1313 = DIRECTION('',(0.,0.,-1.));
#1314 = CYLINDRICAL_SURFACE('',#1315,6.1875);
#1315 = AXIS2_PLACEMENT_3D('',#1316,#1317,#1318);
#1316 = CARTESIAN_POINT('',(0.,0.1,0.));
#1317 = DIRECTION('',(-0.,-1.,-0.));
#1318 = DIRECTION('',(0.,0.,-1.));
#1319 = ADVANCED_FACE('',(#1320),#1346,.F.);
#1320 = FACE_BOUND('',#1321,.T.);
#1321 = EDGE_LOOP('',(#1322,#1333,#1339,#1340));
#1322 = ORIENTED_EDGE('',*,*,#1323,.F.);
#1323 = EDGE_CURVE('',#1324,#1326,#1328,.T.);
#1324 = VERTEX_POINT('',#1325);
#1325 = CARTESIAN_POINT('',(-4.69846310393,0.3,1.710100716628));
#1326 = VERTEX_POINT('',#1327);
#1327 = CARTESIAN_POINT('',(-4.69846310393,0.3,-1.710100716628));
#1328 = CIRCLE('',#1329,5.);
#1329 = AXIS2_PLACEMENT_3D('',#1330,#1331,#1332);
#1330 = CARTESIAN_POINT('',(0.,0.3,0.));
#1331 = DIRECTION('',(0.,-1.,-0.));
#1332 = DIRECTION('',(0.,0.,-1.));
#1333 = ORIENTED_EDGE('',*,*,#1334,.F.);
#1334 = EDGE_CURVE('',#1301,#1324,#1335,.T.);
#1335 = LINE('',#1336,#1337);
#1336 = CARTESIAN_POINT('',(-5.814348091113,0.3,2.116249636828));
#1337 = VECTOR('',#1338,1.);
#1338 = DIRECTION('',(0.939692620786,0.,-0.342020143326));
#1339 = ORIENTED_EDGE('',*,*,#1308,.T.);
#1340 = ORIENTED_EDGE('',*,*,#1341,.T.);
#1341 = EDGE_CURVE('',#1284,#1326,#1342,.T.);
#1342 = LINE('',#1343,#1344);
#1343 = CARTESIAN_POINT('',(-5.814348091113,0.3,-2.116249636828));
#1344 = VECTOR('',#1345,1.);
#1345 = DIRECTION('',(0.939692620786,0.,0.342020143326));
#1346 = PLANE('',#1347);
#1347 = AXIS2_PLACEMENT_3D('',#1348,#1349,#1350);
#1348 = CARTESIAN_POINT('',(-5.814348091113,0.3,2.116249636828));
#1349 = DIRECTION('',(0.,1.,0.));
#1350 = DIRECTION('',(0.,-0.,1.));
#1351 = ADVANCED_FACE('',(#1352),#1378,.F.);
#1352 = FACE_BOUND('',#1353,.F.);
#1353 = EDGE_LOOP('',(#1354,#1362,#1363,#1371));
#1354 = ORIENTED_EDGE('',*,*,#1355,.F.);
#1355 = EDGE_CURVE('',#1326,#1356,#1358,.T.);
#1356 = VERTEX_POINT('',#1357);
#1357 = CARTESIAN_POINT('',(-4.69846310393,34.,-1.710100716628));
#1358 = LINE('',#1359,#1360);
#1359 = CARTESIAN_POINT('',(-4.69846310393,0.3,-1.710100716628));
#1360 = VECTOR('',#1361,1.);
#1361 = DIRECTION('',(0.,1.,0.));
#1362 = ORIENTED_EDGE('',*,*,#1323,.F.);
#1363 = ORIENTED_EDGE('',*,*,#1364,.T.);
#1364 = EDGE_CURVE('',#1324,#1365,#1367,.T.);
#1365 = VERTEX_POINT('',#1366);
#1366 = CARTESIAN_POINT('',(-4.69846310393,34.,1.710100716628));
#1367 = LINE('',#1368,#1369);
#1368 = CARTESIAN_POINT('',(-4.69846310393,0.3,1.710100716628));
#1369 = VECTOR('',#1370,1.);
#1370 = DIRECTION('',(0.,1.,0.));
#1371 = ORIENTED_EDGE('',*,*,#1372,.T.);
#1372 = EDGE_CURVE('',#1365,#1356,#1373,.T.);
#1373 = CIRCLE('',#1374,5.);
#1374 = AXIS2_PLACEMENT_3D('',#1375,#1376,#1377);
#1375 = CARTESIAN_POINT('',(0.,34.,0.));
#1376 = DIRECTION('',(0.,-1.,-0.));
#1377 = DIRECTION('',(0.,0.,-1.));
#1378 = CYLINDRICAL_SURFACE('',#1379,5.);
#1379 = AXIS2_PLACEMENT_3D('',#1380,#1381,#1382);
#1380 = CARTESIAN_POINT('',(0.,0.1,0.));
#1381 = DIRECTION('',(-0.,-1.,-0.));
#1382 = DIRECTION('',(0.,0.,-1.));
#1383 = ADVANCED_FACE('',(#1384),#1410,.F.);
#1384 = FACE_BOUND('',#1385,.T.);
#1385 = EDGE_LOOP('',(#1386,#1397,#1403,#1404));
#1386 = ORIENTED_EDGE('',*,*,#1387,.F.);
#1387 = EDGE_CURVE('',#1388,#1390,#1392,.T.);
#1388 = VERTEX_POINT('',#1389);
#1389 = CARTESIAN_POINT('',(-6.577848345501,34.,2.39414100328));
#1390 = VERTEX_POINT('',#1391);
#1391 = CARTESIAN_POINT('',(-6.577848345501,34.,-2.39414100328));
#1392 = CIRCLE('',#1393,7.);
#1393 = AXIS2_PLACEMENT_3D('',#1394,#1395,#1396);
#1394 = CARTESIAN_POINT('',(0.,34.,0.));
#1395 = DIRECTION('',(0.,-1.,-0.));
#1396 = DIRECTION('',(0.,0.,-1.));
#1397 = ORIENTED_EDGE('',*,*,#1398,.F.);
#1398 = EDGE_CURVE('',#1365,#1388,#1399,.T.);
#1399 = LINE('',#1400,#1401);
#1400 = CARTESIAN_POINT('',(-4.69846310393,34.,1.710100716628));
#1401 = VECTOR('',#1402,1.);
#1402 = DIRECTION('',(-0.939692620786,0.,0.342020143326));
#1403 = ORIENTED_EDGE('',*,*,#1372,.T.);
#1404 = ORIENTED_EDGE('',*,*,#1405,.T.);
#1405 = EDGE_CURVE('',#1356,#1390,#1406,.T.);
#1406 = LINE('',#1407,#1408);
#1407 = CARTESIAN_POINT('',(-4.69846310393,34.,-1.710100716628));
#1408 = VECTOR('',#1409,1.);
#1409 = DIRECTION('',(-0.939692620786,0.,-0.342020143326));
#1410 = PLANE('',#1411);
#1411 = AXIS2_PLACEMENT_3D('',#1412,#1413,#1414);
#1412 = CARTESIAN_POINT('',(-4.69846310393,34.,1.710100716628));
#1413 = DIRECTION('',(0.,-1.,-0.));
#1414 = DIRECTION('',(0.,0.,-1.));
#1415 = ADVANCED_FACE('',(#1416),#1444,.T.);
#1416 = FACE_BOUND('',#1417,.T.);
#1417 = EDGE_LOOP('',(#1418,#1429,#1436,#1437));
#1418 = ORIENTED_EDGE('',*,*,#1419,.F.);
#1419 = EDGE_CURVE('',#1420,#1422,#1424,.T.);
#1420 = VERTEX_POINT('',#1421);
#1421 = CARTESIAN_POINT('',(-7.517540966287,33.,2.736161146605));
#1422 = VERTEX_POINT('',#1423);
#1423 = CARTESIAN_POINT('',(-7.517540966287,33.,-2.736161146605));
#1424 = CIRCLE('',#1425,8.);
#1425 = AXIS2_PLACEMENT_3D('',#1426,#1427,#1428);
#1426 = CARTESIAN_POINT('',(0.,33.,0.));
#1427 = DIRECTION('',(0.,-1.,-0.));
#1428 = DIRECTION('',(0.,0.,-1.));
#1429 = ORIENTED_EDGE('',*,*,#1430,.F.);
#1430 = EDGE_CURVE('',#1388,#1420,#1431,.T.);
#1431 = CIRCLE('',#1432,1.);
#1432 = AXIS2_PLACEMENT_3D('',#1433,#1434,#1435);
#1433 = CARTESIAN_POINT('',(-6.577848345501,33.,2.39414100328));
#1434 = DIRECTION('',(0.342020143326,0.,0.939692620786));
#1435 = DIRECTION('',(0.939692620786,0.,-0.342020143326));
#1436 = ORIENTED_EDGE('',*,*,#1387,.T.);
#1437 = ORIENTED_EDGE('',*,*,#1438,.T.);
#1438 = EDGE_CURVE('',#1390,#1422,#1439,.T.);
#1439 = CIRCLE('',#1440,1.);
#1440 = AXIS2_PLACEMENT_3D('',#1441,#1442,#1443);
#1441 = CARTESIAN_POINT('',(-6.577848345501,33.,-2.39414100328));
#1442 = DIRECTION('',(-0.342020143326,0.,0.939692620786));
#1443 = DIRECTION('',(0.939692620786,0.,0.342020143326));
#1444 = TOROIDAL_SURFACE('',#1445,7.,1.);
#1445 = AXIS2_PLACEMENT_3D('',#1446,#1447,#1448);
#1446 = CARTESIAN_POINT('',(0.,33.,0.));
#1447 = DIRECTION('',(-0.,-1.,-0.));
#1448 = DIRECTION('',(0.,0.,-1.));
#1449 = ADVANCED_FACE('',(#1450),#1476,.T.);
#1450 = FACE_BOUND('',#1451,.T.);
#1451 = EDGE_LOOP('',(#1452,#1463,#1469,#1470));
#1452 = ORIENTED_EDGE('',*,*,#1453,.F.);
#1453 = EDGE_CURVE('',#1454,#1456,#1458,.T.);
#1454 = VERTEX_POINT('',#1455);
#1455 = CARTESIAN_POINT('',(-7.517540966287,5.596291201784,
    2.736161146605));
#1456 = VERTEX_POINT('',#1457);
#1457 = CARTESIAN_POINT('',(-7.517540966287,5.596291201784,
    -2.736161146605));
#1458 = CIRCLE('',#1459,8.);
#1459 = AXIS2_PLACEMENT_3D('',#1460,#1461,#1462);
#1460 = CARTESIAN_POINT('',(0.,5.596291201784,0.));
#1461 = DIRECTION('',(0.,-1.,-0.));
#1462 = DIRECTION('',(0.,0.,-1.));
#1463 = ORIENTED_EDGE('',*,*,#1464,.F.);
#1464 = EDGE_CURVE('',#1420,#1454,#1465,.T.);
#1465 = LINE('',#1466,#1467);
#1466 = CARTESIAN_POINT('',(-7.517540966287,33.,2.736161146605));
#1467 = VECTOR('',#1468,1.);
#1468 = DIRECTION('',(5.948489897782E-17,-1.,-2.165073261626E-17));
#1469 = ORIENTED_EDGE('',*,*,#1419,.T.);
#1470 = ORIENTED_EDGE('',*,*,#1471,.T.);
#1471 = EDGE_CURVE('',#1422,#1456,#1472,.T.);
#1472 = LINE('',#1473,#1474);
#1473 = CARTESIAN_POINT('',(-7.517540966287,33.,-2.736161146605));
#1474 = VECTOR('',#1475,1.);
#1475 = DIRECTION('',(5.948489897782E-17,-1.,2.165073261626E-17));
#1476 = CYLINDRICAL_SURFACE('',#1477,8.);
#1477 = AXIS2_PLACEMENT_3D('',#1478,#1479,#1480);
#1478 = CARTESIAN_POINT('',(0.,0.1,0.));
#1479 = DIRECTION('',(-0.,-1.,-0.));
#1480 = DIRECTION('',(0.,0.,-1.));
#1481 = ADVANCED_FACE('',(#1482),#1510,.T.);
#1482 = FACE_BOUND('',#1483,.T.);
#1483 = EDGE_LOOP('',(#1484,#1495,#1502,#1503));
#1484 = ORIENTED_EDGE('',*,*,#1485,.F.);
#1485 = EDGE_CURVE('',#1486,#1488,#1490,.T.);
#1486 = VERTEX_POINT('',#1487);
#1487 = CARTESIAN_POINT('',(-7.289736694582,4.943543952434,
    2.653247172466));
#1488 = VERTEX_POINT('',#1489);
#1489 = CARTESIAN_POINT('',(-7.289736694582,4.943543952434,
    -2.653247172466));
#1490 = CIRCLE('',#1491,7.757575757576);
#1491 = AXIS2_PLACEMENT_3D('',#1492,#1493,#1494);
#1492 = CARTESIAN_POINT('',(0.,4.943543952434,0.));
#1493 = DIRECTION('',(0.,-1.,-0.));
#1494 = DIRECTION('',(0.,0.,-1.));
#1495 = ORIENTED_EDGE('',*,*,#1496,.F.);
#1496 = EDGE_CURVE('',#1454,#1486,#1497,.T.);
#1497 = CIRCLE('',#1498,1.);
#1498 = AXIS2_PLACEMENT_3D('',#1499,#1500,#1501);
#1499 = CARTESIAN_POINT('',(-6.577848345501,5.596291201784,2.39414100328
    ));
#1500 = DIRECTION('',(0.342020143326,0.,0.939692620786));
#1501 = DIRECTION('',(0.939692620786,0.,-0.342020143326));
#1502 = ORIENTED_EDGE('',*,*,#1453,.T.);
#1503 = ORIENTED_EDGE('',*,*,#1504,.T.);
#1504 = EDGE_CURVE('',#1456,#1488,#1505,.T.);
#1505 = CIRCLE('',#1506,1.);
#1506 = AXIS2_PLACEMENT_3D('',#1507,#1508,#1509);
#1507 = CARTESIAN_POINT('',(-6.577848345501,5.596291201784,
    -2.39414100328));
#1508 = DIRECTION('',(-0.342020143326,0.,0.939692620786));
#1509 = DIRECTION('',(0.939692620786,0.,0.342020143326));
#1510 = TOROIDAL_SURFACE('',#1511,7.,1.);
#1511 = AXIS2_PLACEMENT_3D('',#1512,#1513,#1514);
#1512 = CARTESIAN_POINT('',(0.,5.596291201784,0.));
#1513 = DIRECTION('',(-0.,-1.,-0.));
#1514 = DIRECTION('',(0.,0.,-1.));
#1515 = ADVANCED_FACE('',(#1516),#1534,.F.);
#1516 = FACE_BOUND('',#1517,.F.);
#1517 = EDGE_LOOP('',(#1518,#1525,#1526,#1533));
#1518 = ORIENTED_EDGE('',*,*,#1519,.F.);
#1519 = EDGE_CURVE('',#1488,#1249,#1520,.T.);
#1520 = CIRCLE('',#1521,1.0625);
#1521 = AXIS2_PLACEMENT_3D('',#1522,#1523,#1524);
#1522 = CARTESIAN_POINT('',(-8.046118065479,4.25,-2.928547477226));
#1523 = DIRECTION('',(0.342020143326,0.,-0.939692620786));
#1524 = DIRECTION('',(0.939692620786,0.,0.342020143326));
#1525 = ORIENTED_EDGE('',*,*,#1485,.F.);
#1526 = ORIENTED_EDGE('',*,*,#1527,.T.);
#1527 = EDGE_CURVE('',#1486,#1258,#1528,.T.);
#1528 = CIRCLE('',#1529,1.0625);
#1529 = AXIS2_PLACEMENT_3D('',#1530,#1531,#1532);
#1530 = CARTESIAN_POINT('',(-8.046118065479,4.25,2.928547477226));
#1531 = DIRECTION('',(-0.342020143326,0.,-0.939692620786));
#1532 = DIRECTION('',(0.939692620786,0.,-0.342020143326));
#1533 = ORIENTED_EDGE('',*,*,#1257,.T.);
#1534 = TOROIDAL_SURFACE('',#1535,8.5625,1.0625);
#1535 = AXIS2_PLACEMENT_3D('',#1536,#1537,#1538);
#1536 = CARTESIAN_POINT('',(0.,4.25,0.));
#1537 = DIRECTION('',(-0.,-1.,-0.));
#1538 = DIRECTION('',(0.,0.,-1.));
#1539 = ADVANCED_FACE('',(#1540),#1568,.T.);
#1540 = FACE_BOUND('',#1541,.T.);
#1541 = EDGE_LOOP('',(#1542,#1553,#1560,#1561));
#1542 = ORIENTED_EDGE('',*,*,#1543,.F.);
#1543 = EDGE_CURVE('',#1544,#1546,#1548,.T.);
#1544 = VERTEX_POINT('',#1545);
#1545 = CARTESIAN_POINT('',(-7.517540966287,2.903708798216,
    2.736161146605));
#1546 = VERTEX_POINT('',#1547);
#1547 = CARTESIAN_POINT('',(-7.517540966287,2.903708798216,
    -2.736161146605));
#1548 = CIRCLE('',#1549,8.);
#1549 = AXIS2_PLACEMENT_3D('',#1550,#1551,#1552);
#1550 = CARTESIAN_POINT('',(0.,2.903708798216,0.));
#1551 = DIRECTION('',(0.,-1.,-0.));
#1552 = DIRECTION('',(0.,0.,-1.));
#1553 = ORIENTED_EDGE('',*,*,#1554,.F.);
#1554 = EDGE_CURVE('',#1238,#1544,#1555,.T.);
#1555 = CIRCLE('',#1556,1.);
#1556 = AXIS2_PLACEMENT_3D('',#1557,#1558,#1559);
#1557 = CARTESIAN_POINT('',(-6.577848345501,2.903708798216,2.39414100328
    ));
#1558 = DIRECTION('',(0.342020143326,0.,0.939692620786));
#1559 = DIRECTION('',(0.939692620786,0.,-0.342020143326));
#1560 = ORIENTED_EDGE('',*,*,#1237,.T.);
#1561 = ORIENTED_EDGE('',*,*,#1562,.T.);
#1562 = EDGE_CURVE('',#1240,#1546,#1563,.T.);
#1563 = CIRCLE('',#1564,1.);
#1564 = AXIS2_PLACEMENT_3D('',#1565,#1566,#1567);
#1565 = CARTESIAN_POINT('',(-6.577848345501,2.903708798216,
    -2.39414100328));
#1566 = DIRECTION('',(-0.342020143326,0.,0.939692620786));
#1567 = DIRECTION('',(0.939692620786,0.,0.342020143326));
#1568 = TOROIDAL_SURFACE('',#1569,7.,1.);
#1569 = AXIS2_PLACEMENT_3D('',#1570,#1571,#1572);
#1570 = CARTESIAN_POINT('',(0.,2.903708798216,0.));
#1571 = DIRECTION('',(-0.,-1.,-0.));
#1572 = DIRECTION('',(0.,0.,-1.));
#1573 = ADVANCED_FACE('',(#1574),#1600,.T.);
#1574 = FACE_BOUND('',#1575,.T.);
#1575 = EDGE_LOOP('',(#1576,#1587,#1593,#1594));
#1576 = ORIENTED_EDGE('',*,*,#1577,.F.);
#1577 = EDGE_CURVE('',#1578,#1580,#1582,.T.);
#1578 = VERTEX_POINT('',#1579);
#1579 = CARTESIAN_POINT('',(-7.517540966287,1.,2.736161146605));
#1580 = VERTEX_POINT('',#1581);
#1581 = CARTESIAN_POINT('',(-7.517540966287,1.,-2.736161146605));
#1582 = CIRCLE('',#1583,8.);
#1583 = AXIS2_PLACEMENT_3D('',#1584,#1585,#1586);
#1584 = CARTESIAN_POINT('',(0.,1.,0.));
#1585 = DIRECTION('',(0.,-1.,-0.));
#1586 = DIRECTION('',(0.,0.,-1.));
#1587 = ORIENTED_EDGE('',*,*,#1588,.F.);
#1588 = EDGE_CURVE('',#1544,#1578,#1589,.T.);
#1589 = LINE('',#1590,#1591);
#1590 = CARTESIAN_POINT('',(-7.517540966287,2.903708798216,
    2.736161146605));
#1591 = VECTOR('',#1592,1.);
#1592 = DIRECTION('',(0.,-1.,0.));
#1593 = ORIENTED_EDGE('',*,*,#1543,.T.);
#1594 = ORIENTED_EDGE('',*,*,#1595,.T.);
#1595 = EDGE_CURVE('',#1546,#1580,#1596,.T.);
#1596 = LINE('',#1597,#1598);
#1597 = CARTESIAN_POINT('',(-7.517540966287,2.903708798216,
    -2.736161146605));
#1598 = VECTOR('',#1599,1.);
#1599 = DIRECTION('',(0.,-1.,0.));
#1600 = CYLINDRICAL_SURFACE('',#1601,8.);
#1601 = AXIS2_PLACEMENT_3D('',#1602,#1603,#1604);
#1602 = CARTESIAN_POINT('',(0.,0.1,0.));
#1603 = DIRECTION('',(-0.,-1.,-0.));
#1604 = DIRECTION('',(0.,0.,-1.));
#1605 = ADVANCED_FACE('',(#1606),#1634,.T.);
#1606 = FACE_BOUND('',#1607,.T.);
#1607 = EDGE_LOOP('',(#1608,#1619,#1626,#1627));
#1608 = ORIENTED_EDGE('',*,*,#1609,.F.);
#1609 = EDGE_CURVE('',#1610,#1612,#1614,.T.);
#1610 = VERTEX_POINT('',#1611);
#1611 = CARTESIAN_POINT('',(-6.577848345501,1.084202172486E-15,
    2.39414100328));
#1612 = VERTEX_POINT('',#1613);
#1613 = CARTESIAN_POINT('',(-6.577848345501,1.084202172486E-15,
    -2.39414100328));
#1614 = CIRCLE('',#1615,7.);
#1615 = AXIS2_PLACEMENT_3D('',#1616,#1617,#1618);
#1616 = CARTESIAN_POINT('',(0.,1.084202172486E-15,0.));
#1617 = DIRECTION('',(0.,-1.,-0.));
#1618 = DIRECTION('',(0.,0.,-1.));
#1619 = ORIENTED_EDGE('',*,*,#1620,.F.);
#1620 = EDGE_CURVE('',#1578,#1610,#1621,.T.);
#1621 = CIRCLE('',#1622,1.);
#1622 = AXIS2_PLACEMENT_3D('',#1623,#1624,#1625);
#1623 = CARTESIAN_POINT('',(-6.577848345501,1.,2.39414100328));
#1624 = DIRECTION('',(0.342020143326,0.,0.939692620786));
#1625 = DIRECTION('',(0.939692620786,0.,-0.342020143326));
#1626 = ORIENTED_EDGE('',*,*,#1577,.T.);
#1627 = ORIENTED_EDGE('',*,*,#1628,.T.);
#1628 = EDGE_CURVE('',#1580,#1612,#1629,.T.);
#1629 = CIRCLE('',#1630,1.);
#1630 = AXIS2_PLACEMENT_3D('',#1631,#1632,#1633);
#1631 = CARTESIAN_POINT('',(-6.577848345501,1.,-2.39414100328));
#1632 = DIRECTION('',(-0.342020143326,0.,0.939692620786));
#1633 = DIRECTION('',(0.939692620786,0.,0.342020143326));
#1634 = TOROIDAL_SURFACE('',#1635,7.,1.);
#1635 = AXIS2_PLACEMENT_3D('',#1636,#1637,#1638);
#1636 = CARTESIAN_POINT('',(0.,1.,0.));
#1637 = DIRECTION('',(-0.,-1.,-0.));
#1638 = DIRECTION('',(0.,0.,-1.));
#1639 = ADVANCED_FACE('',(#1640),#1656,.F.);
#1640 = FACE_BOUND('',#1641,.T.);
#1641 = EDGE_LOOP('',(#1642,#1648,#1649,#1655));
#1642 = ORIENTED_EDGE('',*,*,#1643,.F.);
#1643 = EDGE_CURVE('',#1610,#1292,#1644,.T.);
#1644 = LINE('',#1645,#1646);
#1645 = CARTESIAN_POINT('',(-6.577848345501,8.673617379884E-16,
    2.39414100328));
#1646 = VECTOR('',#1647,1.);
#1647 = DIRECTION('',(0.939692620786,-1.067522139063E-15,-0.342020143326
    ));
#1648 = ORIENTED_EDGE('',*,*,#1609,.T.);
#1649 = ORIENTED_EDGE('',*,*,#1650,.T.);
#1650 = EDGE_CURVE('',#1612,#1282,#1651,.T.);
#1651 = LINE('',#1652,#1653);
#1652 = CARTESIAN_POINT('',(-6.577848345501,8.673617379884E-16,
    -2.39414100328));
#1653 = VECTOR('',#1654,1.);
#1654 = DIRECTION('',(0.939692620786,-1.067522139063E-15,0.342020143326)
  );
#1655 = ORIENTED_EDGE('',*,*,#1291,.F.);
#1656 = PLANE('',#1657);
#1657 = AXIS2_PLACEMENT_3D('',#1658,#1659,#1660);
#1658 = CARTESIAN_POINT('',(-6.577848345501,5.421010862428E-16,
    2.39414100328));
#1659 = DIRECTION('',(0.,1.,0.));
#1660 = DIRECTION('',(0.,-0.,1.));
#1661 = ADVANCED_FACE('',(#1662),#1677,.T.);
#1662 = FACE_BOUND('',#1663,.T.);
#1663 = EDGE_LOOP('',(#1664,#1665,#1666,#1667,#1668,#1669,#1670,#1671,
    #1672,#1673,#1674,#1675,#1676));
#1664 = ORIENTED_EDGE('',*,*,#1300,.T.);
#1665 = ORIENTED_EDGE('',*,*,#1334,.T.);
#1666 = ORIENTED_EDGE('',*,*,#1364,.T.);
#1667 = ORIENTED_EDGE('',*,*,#1398,.T.);
#1668 = ORIENTED_EDGE('',*,*,#1430,.T.);
#1669 = ORIENTED_EDGE('',*,*,#1464,.T.);
#1670 = ORIENTED_EDGE('',*,*,#1496,.T.);
#1671 = ORIENTED_EDGE('',*,*,#1527,.T.);
#1672 = ORIENTED_EDGE('',*,*,#1266,.T.);
#1673 = ORIENTED_EDGE('',*,*,#1554,.T.);
#1674 = ORIENTED_EDGE('',*,*,#1588,.T.);
#1675 = ORIENTED_EDGE('',*,*,#1620,.T.);
#1676 = ORIENTED_EDGE('',*,*,#1643,.T.);
#1677 = PLANE('',#1678);
#1678 = AXIS2_PLACEMENT_3D('',#1679,#1680,#1681);
#1679 = CARTESIAN_POINT('',(-6.577848345501,33.,2.39414100328));
#1680 = DIRECTION('',(0.342020143326,0.,0.939692620786));
#1681 = DIRECTION('',(0.939692620786,0.,-0.342020143326));
#1682 = ADVANCED_FACE('',(#1683),#1698,.F.);
#1683 = FACE_BOUND('',#1684,.T.);
#1684 = EDGE_LOOP('',(#1685,#1686,#1687,#1688,#1689,#1690,#1691,#1692,
    #1693,#1694,#1695,#1696,#1697));
#1685 = ORIENTED_EDGE('',*,*,#1281,.F.);
#1686 = ORIENTED_EDGE('',*,*,#1650,.F.);
#1687 = ORIENTED_EDGE('',*,*,#1628,.F.);
#1688 = ORIENTED_EDGE('',*,*,#1595,.F.);
#1689 = ORIENTED_EDGE('',*,*,#1562,.F.);
#1690 = ORIENTED_EDGE('',*,*,#1248,.F.);
#1691 = ORIENTED_EDGE('',*,*,#1519,.F.);
#1692 = ORIENTED_EDGE('',*,*,#1504,.F.);
#1693 = ORIENTED_EDGE('',*,*,#1471,.F.);
#1694 = ORIENTED_EDGE('',*,*,#1438,.F.);
#1695 = ORIENTED_EDGE('',*,*,#1405,.F.);
#1696 = ORIENTED_EDGE('',*,*,#1355,.F.);
#1697 = ORIENTED_EDGE('',*,*,#1341,.F.);
#1698 = PLANE('',#1699);
#1699 = AXIS2_PLACEMENT_3D('',#1700,#1701,#1702);
#1700 = CARTESIAN_POINT('',(-6.577848345501,33.,-2.39414100328));
#1701 = DIRECTION('',(-0.342020143326,0.,0.939692620786));
#1702 = DIRECTION('',(0.939692620786,0.,0.342020143326));
#1703 = ( GEOMETRIC_REPRESENTATION_CONTEXT(3) 
GLOBAL_UNCERTAINTY_ASSIGNED_CONTEXT((#1707)) 
GLOBAL_UNIT_ASSIGNED_CONTEXT((#1704,#1705,#1706)) REPRESENTATION_CONTEXT
('Context #1','3D Context with UNIT and UNCERTAINTY') );
#1704 = ( LENGTH_UNIT() NAMED_UNIT(*) SI_UNIT(.MILLI.,.METRE.) );
#1705 = ( NAMED_UNIT(*) PLANE_ANGLE_UNIT() SI_UNIT($,.RADIAN.) );
#1706 = ( NAMED_UNIT(*) SI_UNIT($,.STERADIAN.) SOLID_ANGLE_UNIT() );
#1707 = UNCERTAINTY_MEASURE_WITH_UNIT(LENGTH_MEASURE(1.E-07),#1704,
  'distance_accuracy_value','confusion accuracy');
#1708 = CONTEXT_DEPENDENT_SHAPE_REPRESENTATION(#1709,#1711);
#1709 = ( REPRESENTATION_RELATIONSHIP('','',#1230,#32) 
REPRESENTATION_RELATIONSHIP_WITH_TRANSFORMATION(#1710) 
SHAPE_REPRESENTATION_RELATIONSHIP() );
#1710 = ITEM_DEFINED_TRANSFORMATION('','',#11,#37);
#1711 = PRODUCT_DEFINITION_SHAPE('Placement','Placement of an item',
  #1712);
#1712 = NEXT_ASSEMBLY_USAGE_OCCURRENCE('2','ESK227M160AM2AA001','',#27,
  #1225,$);
#1713 = PRODUCT_RELATED_PRODUCT_CATEGORY('part',$,(#1227));
#1714 = SHAPE_DEFINITION_REPRESENTATION(#1715,#1721);
#1715 = PRODUCT_DEFINITION_SHAPE('','',#1716);
#1716 = PRODUCT_DEFINITION('design','',#1717,#1720);
#1717 = PRODUCT_DEFINITION_FORMATION('','',#1718);
#1718 = PRODUCT('ESK227M160AM2AA002','ESK227M160AM2AA002','',(#1719));
#1719 = PRODUCT_CONTEXT('',#2,'mechanical');
#1720 = PRODUCT_DEFINITION_CONTEXT('part definition',#2,'design');
#1721 = ADVANCED_BREP_SHAPE_REPRESENTATION('',(#11,#1722),#1810);
#1722 = MANIFOLD_SOLID_BREP('',#1723);
#1723 = CLOSED_SHELL('',(#1724,#1766,#1790,#1800));
#1724 = ADVANCED_FACE('',(#1725),#1761,.T.);
#1725 = FACE_BOUND('',#1726,.T.);
#1726 = EDGE_LOOP('',(#1727,#1738,#1746,#1755));
#1727 = ORIENTED_EDGE('',*,*,#1728,.F.);
#1728 = EDGE_CURVE('',#1729,#1731,#1733,.T.);
#1729 = VERTEX_POINT('',#1730);
#1730 = CARTESIAN_POINT('',(3.75,-20.,-0.4));
#1731 = VERTEX_POINT('',#1732);
#1732 = CARTESIAN_POINT('',(3.75,-20.,0.4));
#1733 = CIRCLE('',#1734,0.4);
#1734 = AXIS2_PLACEMENT_3D('',#1735,#1736,#1737);
#1735 = CARTESIAN_POINT('',(3.75,-20.,0.));
#1736 = DIRECTION('',(0.,-1.,0.));
#1737 = DIRECTION('',(0.,0.,-1.));
#1738 = ORIENTED_EDGE('',*,*,#1739,.T.);
#1739 = EDGE_CURVE('',#1729,#1740,#1742,.T.);
#1740 = VERTEX_POINT('',#1741);
#1741 = CARTESIAN_POINT('',(3.75,0.1,-0.4));
#1742 = LINE('',#1743,#1744);
#1743 = CARTESIAN_POINT('',(3.75,-20.,-0.4));
#1744 = VECTOR('',#1745,1.);
#1745 = DIRECTION('',(-0.,1.,-0.));
#1746 = ORIENTED_EDGE('',*,*,#1747,.T.);
#1747 = EDGE_CURVE('',#1740,#1748,#1750,.T.);
#1748 = VERTEX_POINT('',#1749);
#1749 = CARTESIAN_POINT('',(3.75,0.1,0.4));
#1750 = CIRCLE('',#1751,0.4);
#1751 = AXIS2_PLACEMENT_3D('',#1752,#1753,#1754);
#1752 = CARTESIAN_POINT('',(3.75,0.1,0.));
#1753 = DIRECTION('',(0.,-1.,0.));
#1754 = DIRECTION('',(0.,0.,-1.));
#1755 = ORIENTED_EDGE('',*,*,#1756,.F.);
#1756 = EDGE_CURVE('',#1731,#1748,#1757,.T.);
#1757 = LINE('',#1758,#1759);
#1758 = CARTESIAN_POINT('',(3.75,-20.,0.4));
#1759 = VECTOR('',#1760,1.);
#1760 = DIRECTION('',(-0.,1.,-0.));
#1761 = CYLINDRICAL_SURFACE('',#1762,0.4);
#1762 = AXIS2_PLACEMENT_3D('',#1763,#1764,#1765);
#1763 = CARTESIAN_POINT('',(3.75,-20.,0.));
#1764 = DIRECTION('',(-0.,1.,-0.));
#1765 = DIRECTION('',(0.,0.,1.));
#1766 = ADVANCED_FACE('',(#1767),#1785,.T.);
#1767 = FACE_BOUND('',#1768,.T.);
#1768 = EDGE_LOOP('',(#1769,#1770,#1777,#1778));
#1769 = ORIENTED_EDGE('',*,*,#1739,.F.);
#1770 = ORIENTED_EDGE('',*,*,#1771,.F.);
#1771 = EDGE_CURVE('',#1731,#1729,#1772,.T.);
#1772 = CIRCLE('',#1773,0.4);
#1773 = AXIS2_PLACEMENT_3D('',#1774,#1775,#1776);
#1774 = CARTESIAN_POINT('',(3.75,-20.,0.));
#1775 = DIRECTION('',(0.,-1.,0.));
#1776 = DIRECTION('',(0.,0.,-1.));
#1777 = ORIENTED_EDGE('',*,*,#1756,.T.);
#1778 = ORIENTED_EDGE('',*,*,#1779,.T.);
#1779 = EDGE_CURVE('',#1748,#1740,#1780,.T.);
#1780 = CIRCLE('',#1781,0.4);
#1781 = AXIS2_PLACEMENT_3D('',#1782,#1783,#1784);
#1782 = CARTESIAN_POINT('',(3.75,0.1,0.));
#1783 = DIRECTION('',(0.,-1.,0.));
#1784 = DIRECTION('',(0.,0.,-1.));
#1785 = CYLINDRICAL_SURFACE('',#1786,0.4);
#1786 = AXIS2_PLACEMENT_3D('',#1787,#1788,#1789);
#1787 = CARTESIAN_POINT('',(3.75,-20.,0.));
#1788 = DIRECTION('',(-0.,1.,-0.));
#1789 = DIRECTION('',(0.,0.,1.));
#1790 = ADVANCED_FACE('',(#1791),#1795,.T.);
#1791 = FACE_BOUND('',#1792,.T.);
#1792 = EDGE_LOOP('',(#1793,#1794));
#1793 = ORIENTED_EDGE('',*,*,#1771,.T.);
#1794 = ORIENTED_EDGE('',*,*,#1728,.T.);
#1795 = PLANE('',#1796);
#1796 = AXIS2_PLACEMENT_3D('',#1797,#1798,#1799);
#1797 = CARTESIAN_POINT('',(3.75,-20.,0.));
#1798 = DIRECTION('',(0.,-1.,0.));
#1799 = DIRECTION('',(0.,-0.,-1.));
#1800 = ADVANCED_FACE('',(#1801),#1805,.F.);
#1801 = FACE_BOUND('',#1802,.T.);
#1802 = EDGE_LOOP('',(#1803,#1804));
#1803 = ORIENTED_EDGE('',*,*,#1779,.F.);
#1804 = ORIENTED_EDGE('',*,*,#1747,.F.);
#1805 = PLANE('',#1806);
#1806 = AXIS2_PLACEMENT_3D('',#1807,#1808,#1809);
#1807 = CARTESIAN_POINT('',(3.75,0.1,0.));
#1808 = DIRECTION('',(0.,-1.,0.));
#1809 = DIRECTION('',(0.,-0.,-1.));
#1810 = ( GEOMETRIC_REPRESENTATION_CONTEXT(3) 
GLOBAL_UNCERTAINTY_ASSIGNED_CONTEXT((#1814)) 
GLOBAL_UNIT_ASSIGNED_CONTEXT((#1811,#1812,#1813)) REPRESENTATION_CONTEXT
('Context #1','3D Context with UNIT and UNCERTAINTY') );
#1811 = ( LENGTH_UNIT() NAMED_UNIT(*) SI_UNIT(.MILLI.,.METRE.) );
#1812 = ( NAMED_UNIT(*) PLANE_ANGLE_UNIT() SI_UNIT($,.RADIAN.) );
#1813 = ( NAMED_UNIT(*) SI_UNIT($,.STERADIAN.) SOLID_ANGLE_UNIT() );
#1814 = UNCERTAINTY_MEASURE_WITH_UNIT(LENGTH_MEASURE(1.E-07),#1811,
  'distance_accuracy_value','confusion accuracy');
#1815 = CONTEXT_DEPENDENT_SHAPE_REPRESENTATION(#1816,#1818);
#1816 = ( REPRESENTATION_RELATIONSHIP('','',#1721,#32) 
REPRESENTATION_RELATIONSHIP_WITH_TRANSFORMATION(#1817) 
SHAPE_REPRESENTATION_RELATIONSHIP() );
#1817 = ITEM_DEFINED_TRANSFORMATION('','',#11,#41);
#1818 = PRODUCT_DEFINITION_SHAPE('Placement','Placement of an item',
  #1819);
#1819 = NEXT_ASSEMBLY_USAGE_OCCURRENCE('3','ESK227M160AM2AA002','',#27,
  #1716,$);
#1820 = PRODUCT_RELATED_PRODUCT_CATEGORY('part',$,(#1718));
#1821 = SHAPE_DEFINITION_REPRESENTATION(#1822,#1828);
#1822 = PRODUCT_DEFINITION_SHAPE('','',#1823);
#1823 = PRODUCT_DEFINITION('design','',#1824,#1827);
#1824 = PRODUCT_DEFINITION_FORMATION('','',#1825);
#1825 = PRODUCT('ESK227M160AM2AA003','ESK227M160AM2AA003','',(#1826));
#1826 = PRODUCT_CONTEXT('',#2,'mechanical');
#1827 = PRODUCT_DEFINITION_CONTEXT('part definition',#2,'design');
#1828 = ADVANCED_BREP_SHAPE_REPRESENTATION('',(#11,#1829),#1917);
#1829 = MANIFOLD_SOLID_BREP('',#1830);
#1830 = CLOSED_SHELL('',(#1831,#1873,#1897,#1907));
#1831 = ADVANCED_FACE('',(#1832),#1868,.T.);
#1832 = FACE_BOUND('',#1833,.T.);
#1833 = EDGE_LOOP('',(#1834,#1845,#1853,#1862));
#1834 = ORIENTED_EDGE('',*,*,#1835,.F.);
#1835 = EDGE_CURVE('',#1836,#1838,#1840,.T.);
#1836 = VERTEX_POINT('',#1837);
#1837 = CARTESIAN_POINT('',(-3.75,-15.,-0.4));
#1838 = VERTEX_POINT('',#1839);
#1839 = CARTESIAN_POINT('',(-3.75,-15.,0.4));
#1840 = CIRCLE('',#1841,0.4);
#1841 = AXIS2_PLACEMENT_3D('',#1842,#1843,#1844);
#1842 = CARTESIAN_POINT('',(-3.75,-15.,0.));
#1843 = DIRECTION('',(0.,-1.,0.));
#1844 = DIRECTION('',(0.,0.,-1.));
#1845 = ORIENTED_EDGE('',*,*,#1846,.T.);
#1846 = EDGE_CURVE('',#1836,#1847,#1849,.T.);
#1847 = VERTEX_POINT('',#1848);
#1848 = CARTESIAN_POINT('',(-3.75,0.1,-0.4));
#1849 = LINE('',#1850,#1851);
#1850 = CARTESIAN_POINT('',(-3.75,-20.,-0.4));
#1851 = VECTOR('',#1852,1.);
#1852 = DIRECTION('',(-0.,1.,-0.));
#1853 = ORIENTED_EDGE('',*,*,#1854,.T.);
#1854 = EDGE_CURVE('',#1847,#1855,#1857,.T.);
#1855 = VERTEX_POINT('',#1856);
#1856 = CARTESIAN_POINT('',(-3.75,0.1,0.4));
#1857 = CIRCLE('',#1858,0.4);
#1858 = AXIS2_PLACEMENT_3D('',#1859,#1860,#1861);
#1859 = CARTESIAN_POINT('',(-3.75,0.1,0.));
#1860 = DIRECTION('',(0.,-1.,0.));
#1861 = DIRECTION('',(0.,0.,-1.));
#1862 = ORIENTED_EDGE('',*,*,#1863,.F.);
#1863 = EDGE_CURVE('',#1838,#1855,#1864,.T.);
#1864 = LINE('',#1865,#1866);
#1865 = CARTESIAN_POINT('',(-3.75,-20.,0.4));
#1866 = VECTOR('',#1867,1.);
#1867 = DIRECTION('',(-0.,1.,-0.));
#1868 = CYLINDRICAL_SURFACE('',#1869,0.4);
#1869 = AXIS2_PLACEMENT_3D('',#1870,#1871,#1872);
#1870 = CARTESIAN_POINT('',(-3.75,-20.,0.));
#1871 = DIRECTION('',(-0.,1.,-0.));
#1872 = DIRECTION('',(0.,0.,1.));
#1873 = ADVANCED_FACE('',(#1874),#1892,.T.);
#1874 = FACE_BOUND('',#1875,.T.);
#1875 = EDGE_LOOP('',(#1876,#1877,#1884,#1885));
#1876 = ORIENTED_EDGE('',*,*,#1846,.F.);
#1877 = ORIENTED_EDGE('',*,*,#1878,.F.);
#1878 = EDGE_CURVE('',#1838,#1836,#1879,.T.);
#1879 = CIRCLE('',#1880,0.4);
#1880 = AXIS2_PLACEMENT_3D('',#1881,#1882,#1883);
#1881 = CARTESIAN_POINT('',(-3.75,-15.,0.));
#1882 = DIRECTION('',(0.,-1.,0.));
#1883 = DIRECTION('',(0.,0.,-1.));
#1884 = ORIENTED_EDGE('',*,*,#1863,.T.);
#1885 = ORIENTED_EDGE('',*,*,#1886,.T.);
#1886 = EDGE_CURVE('',#1855,#1847,#1887,.T.);
#1887 = CIRCLE('',#1888,0.4);
#1888 = AXIS2_PLACEMENT_3D('',#1889,#1890,#1891);
#1889 = CARTESIAN_POINT('',(-3.75,0.1,0.));
#1890 = DIRECTION('',(0.,-1.,0.));
#1891 = DIRECTION('',(0.,0.,-1.));
#1892 = CYLINDRICAL_SURFACE('',#1893,0.4);
#1893 = AXIS2_PLACEMENT_3D('',#1894,#1895,#1896);
#1894 = CARTESIAN_POINT('',(-3.75,-20.,0.));
#1895 = DIRECTION('',(-0.,1.,-0.));
#1896 = DIRECTION('',(0.,0.,1.));
#1897 = ADVANCED_FACE('',(#1898),#1902,.F.);
#1898 = FACE_BOUND('',#1899,.T.);
#1899 = EDGE_LOOP('',(#1900,#1901));
#1900 = ORIENTED_EDGE('',*,*,#1886,.F.);
#1901 = ORIENTED_EDGE('',*,*,#1854,.F.);
#1902 = PLANE('',#1903);
#1903 = AXIS2_PLACEMENT_3D('',#1904,#1905,#1906);
#1904 = CARTESIAN_POINT('',(-3.75,0.1,0.));
#1905 = DIRECTION('',(0.,-1.,0.));
#1906 = DIRECTION('',(0.,-0.,-1.));
#1907 = ADVANCED_FACE('',(#1908),#1912,.T.);
#1908 = FACE_BOUND('',#1909,.T.);
#1909 = EDGE_LOOP('',(#1910,#1911));
#1910 = ORIENTED_EDGE('',*,*,#1878,.T.);
#1911 = ORIENTED_EDGE('',*,*,#1835,.T.);
#1912 = PLANE('',#1913);
#1913 = AXIS2_PLACEMENT_3D('',#1914,#1915,#1916);
#1914 = CARTESIAN_POINT('',(-3.75,-15.,0.));
#1915 = DIRECTION('',(0.,-1.,0.));
#1916 = DIRECTION('',(0.,-0.,-1.));
#1917 = ( GEOMETRIC_REPRESENTATION_CONTEXT(3) 
GLOBAL_UNCERTAINTY_ASSIGNED_CONTEXT((#1921)) 
GLOBAL_UNIT_ASSIGNED_CONTEXT((#1918,#1919,#1920)) REPRESENTATION_CONTEXT
('Context #1','3D Context with UNIT and UNCERTAINTY') );
#1918 = ( LENGTH_UNIT() NAMED_UNIT(*) SI_UNIT(.MILLI.,.METRE.) );
#1919 = ( NAMED_UNIT(*) PLANE_ANGLE_UNIT() SI_UNIT($,.RADIAN.) );
#1920 = ( NAMED_UNIT(*) SI_UNIT($,.STERADIAN.) SOLID_ANGLE_UNIT() );
#1921 = UNCERTAINTY_MEASURE_WITH_UNIT(LENGTH_MEASURE(1.E-07),#1918,
  'distance_accuracy_value','confusion accuracy');
#1922 = CONTEXT_DEPENDENT_SHAPE_REPRESENTATION(#1923,#1925);
#1923 = ( REPRESENTATION_RELATIONSHIP('','',#1828,#32) 
REPRESENTATION_RELATIONSHIP_WITH_TRANSFORMATION(#1924) 
SHAPE_REPRESENTATION_RELATIONSHIP() );
#1924 = ITEM_DEFINED_TRANSFORMATION('','',#11,#45);
#1925 = PRODUCT_DEFINITION_SHAPE('Placement','Placement of an item',
  #1926);
#1926 = NEXT_ASSEMBLY_USAGE_OCCURRENCE('4','ESK227M160AM2AA003','',#27,
  #1823,$);
#1927 = PRODUCT_RELATED_PRODUCT_CATEGORY('part',$,(#1825));
#1928 = MECHANICAL_DESIGN_GEOMETRIC_PRESENTATION_REPRESENTATION('',(
    #1929),#1810);
#1929 = STYLED_ITEM('color',(#1930),#1722);
#1930 = PRESENTATION_STYLE_ASSIGNMENT((#1931,#1937));
#1931 = SURFACE_STYLE_USAGE(.BOTH.,#1932);
#1932 = SURFACE_SIDE_STYLE('',(#1933));
#1933 = SURFACE_STYLE_FILL_AREA(#1934);
#1934 = FILL_AREA_STYLE('',(#1935));
#1935 = FILL_AREA_STYLE_COLOUR('',#1936);
#1936 = COLOUR_RGB('',0.792156867455,0.819607860991,0.933333342953);
#1937 = CURVE_STYLE('',#1938,POSITIVE_LENGTH_MEASURE(0.1),#1939);
#1938 = DRAUGHTING_PRE_DEFINED_CURVE_FONT('continuous');
#1939 = COLOUR_RGB('',9.803921802644E-02,9.803921802644E-02,
  9.803921802644E-02);
#1940 = MECHANICAL_DESIGN_GEOMETRIC_PRESENTATION_REPRESENTATION('',(
    #1941,#1951,#1959),#1212);
#1941 = STYLED_ITEM('color',(#1942),#68);
#1942 = PRESENTATION_STYLE_ASSIGNMENT((#1943,#1949));
#1943 = SURFACE_STYLE_USAGE(.BOTH.,#1944);
#1944 = SURFACE_SIDE_STYLE('',(#1945));
#1945 = SURFACE_STYLE_FILL_AREA(#1946);
#1946 = FILL_AREA_STYLE('',(#1947));
#1947 = FILL_AREA_STYLE_COLOUR('',#1948);
#1948 = COLOUR_RGB('',0.,0.,0.501960817233);
#1949 = CURVE_STYLE('',#1950,POSITIVE_LENGTH_MEASURE(0.1),#1939);
#1950 = DRAUGHTING_PRE_DEFINED_CURVE_FONT('continuous');
#1951 = OVER_RIDING_STYLED_ITEM('overriding color',(#1952),#1019,#1941);
#1952 = PRESENTATION_STYLE_ASSIGNMENT((#1953));
#1953 = SURFACE_STYLE_USAGE(.BOTH.,#1954);
#1954 = SURFACE_SIDE_STYLE('',(#1955));
#1955 = SURFACE_STYLE_FILL_AREA(#1956);
#1956 = FILL_AREA_STYLE('',(#1957));
#1957 = FILL_AREA_STYLE_COLOUR('',#1958);
#1958 = COLOUR_RGB('',0.25098037884,0.25098037884,0.25098037884);
#1959 = OVER_RIDING_STYLED_ITEM('overriding color',(#1960),#1037,#1941);
#1960 = PRESENTATION_STYLE_ASSIGNMENT((#1961));
#1961 = SURFACE_STYLE_USAGE(.BOTH.,#1962);
#1962 = SURFACE_SIDE_STYLE('',(#1963));
#1963 = SURFACE_STYLE_FILL_AREA(#1964);
#1964 = FILL_AREA_STYLE('',(#1965));
#1965 = FILL_AREA_STYLE_COLOUR('',#1936);
#1966 = MECHANICAL_DESIGN_GEOMETRIC_PRESENTATION_REPRESENTATION('',(
    #1967),#1703);
#1967 = STYLED_ITEM('color',(#1968),#1231);
#1968 = PRESENTATION_STYLE_ASSIGNMENT((#1969,#1975));
#1969 = SURFACE_STYLE_USAGE(.BOTH.,#1970);
#1970 = SURFACE_SIDE_STYLE('',(#1971));
#1971 = SURFACE_STYLE_FILL_AREA(#1972);
#1972 = FILL_AREA_STYLE('',(#1973));
#1973 = FILL_AREA_STYLE_COLOUR('',#1974);
#1974 = DRAUGHTING_PRE_DEFINED_COLOUR('white');
#1975 = CURVE_STYLE('',#1976,POSITIVE_LENGTH_MEASURE(0.1),#1939);
#1976 = DRAUGHTING_PRE_DEFINED_CURVE_FONT('continuous');
#1977 = MECHANICAL_DESIGN_GEOMETRIC_PRESENTATION_REPRESENTATION('',(
    #1978),#1917);
#1978 = STYLED_ITEM('color',(#1979),#1829);
#1979 = PRESENTATION_STYLE_ASSIGNMENT((#1980,#1985));
#1980 = SURFACE_STYLE_USAGE(.BOTH.,#1981);
#1981 = SURFACE_SIDE_STYLE('',(#1982));
#1982 = SURFACE_STYLE_FILL_AREA(#1983);
#1983 = FILL_AREA_STYLE('',(#1984));
#1984 = FILL_AREA_STYLE_COLOUR('',#1936);
#1985 = CURVE_STYLE('',#1986,POSITIVE_LENGTH_MEASURE(0.1),#1939);
#1986 = DRAUGHTING_PRE_DEFINED_CURVE_FONT('continuous');
ENDSEC;
END-ISO-10303-21;
